<svg xmlns="http://www.w3.org/2000/svg" width="21.973" height="23.305" viewBox="0 0 21.973 23.305">
  <path id="Path_3260" data-name="Path 3260" d="M1406.953,4193.982l2.177-1.97a.987.987,0,0,1,1.358.068l4.685,5.194,0,0a.958.958,0,0,1-.072,1.352l-1.87,1.689a15.466,15.466,0,0,0,2.6,3.726l.012.023.01.007a18.086,18.086,0,0,0,3.476,2.989l1.87-1.689,0,0a.956.956,0,0,1,1.35.072l4.688,5.185a.968.968,0,0,1-.069,1.358l-2.189,1.966a4.35,4.35,0,0,1-3.134,1.122,4.261,4.261,0,0,1-1.836-.516,31.823,31.823,0,0,1-8.415-6.64c-1.288-1.469-2.307-2.858-2.474-3.106a31.657,31.657,0,0,1-3.28-5.937A4.341,4.341,0,0,1,1406.953,4193.982Zm.666,4.157a29.982,29.982,0,0,0,3.079,5.582l2.33,2.907a29.866,29.866,0,0,0,7.919,6.242,2.426,2.426,0,0,0,2.776-.34l1.464-1.326-3.39-3.761-1.7,1.533a.961.961,0,0,1-1.159.11,20,20,0,0,1-4.351-3.562c-.047-.048-.1-.1-.153-.162a25.2,25.2,0,0,1-3.25-4.855.961.961,0,0,1,.228-1.143l1.7-1.537-3.4-3.758-1.469,1.344A2.424,2.424,0,0,0,1407.618,4198.14Z" transform="translate(-1405.514 -4191.774)" fill="#272f68"/>
</svg>
