<svg xmlns="http://www.w3.org/2000/svg" xmlns:xlink="http://www.w3.org/1999/xlink" width="227.083" height="227.03" viewBox="0 0 227.083 227.03">
  <defs>
    <clipPath id="clip-path">
      <rect id="Rectangle_115" data-name="Rectangle 115" width="164.229" height="164.051" fill="#fff"/>
    </clipPath>
  </defs>
  <g id="Group_165" data-name="Group 165" transform="matrix(0.839, -0.545, 0.545, 0.839, 0, 89.446)">
    <path id="Path_3209" data-name="Path 3209" d="M70.544,48.427,64.37,40.972l-2.88,2.385-.821-.991,6.8-5.634.821.991-2.88,2.385,6.174,7.455Z" transform="translate(-34.269 -20.747)" fill="#fff"/>
    <path id="Path_3210" data-name="Path 3210" d="M90.491,33.1l-5.407-9.54,1.074-.608,7.911,5.556-.722-9.63,1.087-.616,5.4,9.534-1.12.635-3.935-6.943.7,8.786-.629.356-7.178-5.114,3.939,6.95Z" transform="translate(-48.059 -10.316)" fill="#fff"/>
    <path id="Path_3211" data-name="Path 3211" d="M122.17,19.942l-3.535-10.38,1.283-.437,1.559,4.577,5.464-1.86-1.559-4.578,1.283-.437L130.2,17.207l-1.283.437-1.561-4.585-5.464,1.861,1.562,4.585Z" transform="translate(-67.01 -3.856)" fill="#fff"/>
    <path id="Path_3212" data-name="Path 3212" d="M159.217.255l-2.855,9.226-5.326-8.068-1.221.173,1.537,10.858,1.274-.18-1.119-7.91,4.807,7.388.716-.1L159.6,3.209l1.118,7.9,1.274-.181L160.454.081Z" transform="translate(-84.622 -0.045)" fill="#fff"/>
    <path id="Path_3213" data-name="Path 3213" d="M189.482,1.461l1.7,5.772-3.83-.148ZM188.608,0l-4.093,10.815,1.408.054.957-2.531,4.684.181.766,2.6,1.408.055L190.495.073Z" transform="translate(-104.222)" fill="#fff"/>
    <path id="Path_3214" data-name="Path 3214" d="M228.2,6.071l1.821.5.638,11.546-1.359-.373-.586-10.039-5.6,8.343-1.359-.373Zm-5.486,9.866.34-1.241,7.006,1.922-.34,1.241Z" transform="translate(-125.26 -3.429)" fill="#fff"/>
    <rect id="Rectangle_107" data-name="Rectangle 107" width="10.966" height="1.355" transform="translate(108.364 15.947) rotate(-67.751)" fill="#fff"/>
    <path id="Path_3215" data-name="Path 3215" d="M258.771,30.41l8.543-7.794,1.65.919L266.834,34.9l-1.231-.685,1.951-10.559.372.208L260,31.1Zm2.792-1.382.619-1.111,4.976,2.772L266.54,31.8Z" transform="translate(-146.165 -12.775)" fill="#fff"/>
    <path id="Path_3216" data-name="Path 3216" d="M281.243,42.369l6.394-2.035.461-6.525,1.3,1.021-.407,5.114,4.867-1.608,1.305,1.027-6.232,1.988-.473,6.689-1.3-1.021.416-5.273-5.025,1.648Z" transform="translate(-158.859 -19.097)" fill="#fff"/>
    <path id="Path_3217" data-name="Path 3217" d="M302.486,61.332l7.99-7.511,4.747,5.05-.938.881-3.818-4.062-2.5,2.352,3.192,3.4-.937.882-3.192-3.4-2.674,2.514L308.17,65.5l-.938.882Z" transform="translate(-170.857 -30.4)" fill="#fff"/>
    <rect id="Rectangle_108" data-name="Rectangle 108" width="10.966" height="1.355" transform="matrix(0.8, -0.599, 0.599, 0.8, 138.617, 38.905)" fill="#fff"/>
    <g id="Group_82" data-name="Group 82">
      <g id="Group_81" data-name="Group 81" clip-path="url(#clip-path)">
        <path id="Path_3218" data-name="Path 3218" d="M325.794,92.16l9.48-5.511,2.178,3.746q.08.138.181.336a3.289,3.289,0,0,1,.171.393,3.171,3.171,0,0,1,.225,1.6,2.932,2.932,0,0,1-.573,1.386,4.051,4.051,0,0,1-1.226,1.065,3.986,3.986,0,0,1-1.527.531,3,3,0,0,1-1.493-.189,3.14,3.14,0,0,1-1.278-.979q-.13-.163-.254-.346c-.083-.123-.151-.23-.2-.322l-1.5-2.574-3.5,2.037Zm5.3-1.511,1.473,2.535c.049.084.108.176.18.279a2.5,2.5,0,0,0,.224.279,1.764,1.764,0,0,0,.815.517,1.944,1.944,0,0,0,.9.035,2.7,2.7,0,0,0,1.547-.9,1.971,1.971,0,0,0,.419-.8,1.7,1.7,0,0,0-.048-.963,1.759,1.759,0,0,0-.129-.335q-.084-.166-.157-.292l-1.473-2.535Z" transform="translate(-184.023 -48.943)" fill="#fff"/>
        <rect id="Rectangle_109" data-name="Rectangle 109" width="10.966" height="1.355" transform="translate(147.051 53.101) rotate(-23.482)" fill="#fff"/>
        <path id="Path_3219" data-name="Path 3219" d="M342.7,129.232l1.182-.352,5.266,2.793,2.864-5.215,1.2-.356,2.2,7.371-1.233.368-1.676-5.627-2.752,5.007-.248.074-5.043-2.685,1.635,5.488-1.234.368Z" transform="translate(-193.573 -71.228)" fill="#fff"/>
        <path id="Path_3220" data-name="Path 3220" d="M349.566,156.826l10.883-1.344.166,1.345-4.8.593.708,5.729,4.8-.593.166,1.345-10.883,1.344-.166-1.345,4.807-.594-.708-5.729-4.807.594Z" transform="translate(-197.45 -87.823)" fill="#fff"/>
        <path id="Path_3221" data-name="Path 3221" d="M351.823,186.448l1.233.05,4.074,4.351,4.4-4,1.248.051-.315,7.685-1.286-.053.24-5.866-4.228,3.843-.258-.011-3.9-4.176-.235,5.722-1.286-.053Z" transform="translate(-198.551 -105.314)" fill="#fff"/>
        <path id="Path_3222" data-name="Path 3222" d="M355.484,227.843l-.5,1.822-11.546.649.371-1.359,10.039-.6L345.5,222.77l.372-1.359Z" transform="translate(-193.99 -125.063)" fill="#fff"/>
        <rect id="Rectangle_110" data-name="Rectangle 110" width="1.356" height="10.966" transform="translate(147.77 109.259) rotate(-67.996)" fill="#fff"/>
        <path id="Path_3223" data-name="Path 3223" d="M329.321,259.516l9.49,5.5-.618,1.067-9.635-.792,5.495,7.942-.626,1.081-9.483-5.491.645-1.114,6.906,4-5.047-7.226.363-.626,8.779.781-6.913-4Z" transform="translate(-182.977 -146.586)" fill="#fff"/>
        <path id="Path_3224" data-name="Path 3224" d="M312.933,287.6l8.4,7.051-4.456,5.308-.986-.828,3.584-4.269-2.631-2.208-3,3.57-.986-.827,3-3.57-2.812-2.36-3.584,4.269-.986-.828Z" transform="translate(-174.242 -162.448)" fill="#fff"/>
        <path id="Path_3225" data-name="Path 3225" d="M294.744,305.484l7.189,8.28-1.035.9-9.935-2.72,5.617,6.469-1.035.9-7.189-8.281,1.035-.9,9.94,2.725-5.621-6.475Z" transform="translate(-162.876 -172.551)" fill="#fff"/>
        <path id="Path_3226" data-name="Path 3226" d="M271.371,322.626l.663,1.1-1.632.98a5.43,5.43,0,0,1,2.214.882,6.008,6.008,0,0,1,1.79,1.937,6.277,6.277,0,0,1,.8,2.013,5.1,5.1,0,0,1,.01,2.006,4.669,4.669,0,0,1-.792,1.817,5.715,5.715,0,0,1-3.649,2.192,4.626,4.626,0,0,1-1.973-.157,5.134,5.134,0,0,1-1.763-.953,6.285,6.285,0,0,1-1.4-1.649,6.075,6.075,0,0,1-.876-2.486,5.276,5.276,0,0,1,.267-2.372l-1.625.976-.663-1.1,3.147-1.89.656,1.107a3.839,3.839,0,0,0-.469,1.276,4.92,4.92,0,0,0-.019,1.677,5.193,5.193,0,0,0,.681,1.852,5.415,5.415,0,0,0,1.067,1.332,4.225,4.225,0,0,0,1.339.825,3.45,3.45,0,0,0,1.492.214,3.441,3.441,0,0,0,3.165-3,4.34,4.34,0,0,0-.09-1.563,5.43,5.43,0,0,0-.643-1.559,5.27,5.27,0,0,0-.981-1.218,4.833,4.833,0,0,0-1.118-.768,4.568,4.568,0,0,0-1.119-.385,4.061,4.061,0,0,0-.982-.081l-.663-1.1Z" transform="translate(-148.404 -182.233)" fill="#fff"/>
        <path id="Path_3227" data-name="Path 3227" d="M245.87,337.589l3.921,10.241-1.28.49-8.4-5.956,3.063,8-1.28.49-3.92-10.241,1.28-.49,8.407,5.963-3.066-8.008Z" transform="translate(-134.415 -190.685)" fill="#fff"/>
        <path id="Path_3228" data-name="Path 3228" d="M204.151,349.745a5.324,5.324,0,0,1,1.726.045,3.15,3.15,0,0,1,1.422.661,3.069,3.069,0,0,1,.738.922,3.8,3.8,0,0,1,.373,1.13,4.007,4.007,0,0,1-.023,1.189,2.848,2.848,0,0,1-.419,1.087,2.156,2.156,0,0,1-.389.469,3.673,3.673,0,0,1-.457.355,5.675,5.675,0,0,1,.933.946,2.41,2.41,0,0,1,.43,1.15,2.925,2.925,0,0,1-.25,1.656,2.7,2.7,0,0,1-1.114,1.208,3.3,3.3,0,0,1-.759.332,5.036,5.036,0,0,1-.781.167,4.471,4.471,0,0,1-1.285-.017,2.559,2.559,0,0,1-1.119-.454,2.52,2.52,0,0,1-.563-.492,2.856,2.856,0,0,1-.4-.612l1.27-.51a1.491,1.491,0,0,0,.56.588,1.448,1.448,0,0,0,.655.23,3.08,3.08,0,0,0,.717-.008,2.475,2.475,0,0,0,1.036-.365,1.431,1.431,0,0,0,.56-.653,1.715,1.715,0,0,0,.1-.892,1.51,1.51,0,0,0-.239-.687,3.347,3.347,0,0,0-.487-.532q-.18-.145-.4-.3l-.461-.328-3.588-2.56q0,.191.02.389t.042.379l.2,1.5-1.231.16-.229-1.767q-.07-.537-.085-.918a3.222,3.222,0,0,1,.028-.641l-1.548-1.1.755-1.05,1.289.938a3.1,3.1,0,0,1,.627-.672,3.726,3.726,0,0,1,.767-.483,3.608,3.608,0,0,1,.768-.3,6.473,6.473,0,0,1,.816-.16m.137,1.3a4.608,4.608,0,0,0-.666.132,2.073,2.073,0,0,0-.551.248,2.9,2.9,0,0,0-.516.405,3.369,3.369,0,0,0-.287.336l3.709,2.606a2.324,2.324,0,0,0,.478-.308,1.815,1.815,0,0,0,.366-.408,1.6,1.6,0,0,0,.218-.6,2.472,2.472,0,0,0,.005-.7,2.159,2.159,0,0,0-.221-.693,1.831,1.831,0,0,0-1.387-.983,3.772,3.772,0,0,0-1.148-.031" transform="translate(-112.477 -197.524)" fill="#fff"/>
        <path id="Path_3229" data-name="Path 3229" d="M168.8,350.79,167.667,361.7l-1.363-.142-4.8-9.114-.888,8.521-1.363-.142,1.137-10.907,1.363.142,4.8,9.121.889-8.529Z" transform="translate(-89.953 -197.646)" fill="#fff"/>
        <path id="Path_3230" data-name="Path 3230" d="M143.658,345.533l-6.463,9.589-1.82-.5-.611-11.548,1.358.376.595,10.722-.411-.114,6-8.9Zm-2.387,2-.339,1.226-5.49-1.52.339-1.225Z" transform="translate(-76.12 -193.781)" fill="#fff"/>
        <path id="Path_3231" data-name="Path 3231" d="M113.042,338.125l-1.827,4.179.82,7.348-1.444-.631-.625-5.567-4.5,3.326-1.445-.632,5.942-4.392,1.827-4.18Z" transform="translate(-58.754 -190.678)" fill="#fff"/>
        <path id="Path_3232" data-name="Path 3232" d="M89.137,326.232l-5.2,8.164,3.154,2.009L86.4,337.49l-7.451-4.745.691-1.085,3.154,2.009,5.2-8.164Z" transform="translate(-44.594 -183.859)" fill="#fff"/>
        <rect id="Rectangle_111" data-name="Rectangle 111" width="10.966" height="1.355" transform="translate(29.919 145.33) rotate(-50.948)" fill="#fff"/>
        <path id="Path_3233" data-name="Path 3233" d="M53.569,306.625l-1.319-1.351,5.281-10.288.984,1.008-4.566,8.96L63,300.582l.984,1.008Z" transform="translate(-29.513 -166.621)" fill="#fff"/>
        <rect id="Rectangle_112" data-name="Rectangle 112" width="10.966" height="1.356" transform="translate(16.722 131.589) rotate(-37.679)" fill="#fff"/>
        <path id="Path_3234" data-name="Path 3234" d="M37.845,270.906l-11.3,2.47-.968-1.622,7.533-8.773.722,1.209-6.975,8.165-.218-.366,10.48-2.293Zm-3.109-.2-1.092.652-2.92-4.891,1.092-.652Z" transform="translate(-14.449 -148.543)" fill="#fff"/>
        <path id="Path_3235" data-name="Path 3235" d="M23.1,247.7l-1.147.454-5.49-2.322-2.4,5.446-1.161.46-2.832-7.15,1.2-.474,2.162,5.459,2.3-5.229.241-.1,5.259,2.234-2.109-5.324,1.2-.474Z" transform="translate(-5.689 -135.951)" fill="#fff"/>
        <rect id="Rectangle_113" data-name="Rectangle 113" width="1.119" height="4.569" transform="matrix(0.985, -0.17, 0.17, 0.985, 6.384, 92.803)" fill="#fff"/>
        <path id="Path_3236" data-name="Path 3236" d="M10.962,182.3,0,182.011l.184-6.928,1.287.034-.148,5.573,3.433.091.123-4.659,1.287.034-.124,4.659,3.669.1.148-5.573,1.286.034Z" transform="translate(0 -98.895)" fill="#fff"/>
        <path id="Path_3237" data-name="Path 3237" d="M12.391,155.377l-10.8-1.913.236-1.335,5.069.9-4.232-5.622.3-1.68,4.372,5.833,6.493-4.3-.305,1.725-6.176,4.126,5.279.936Z" transform="translate(-0.9 -82.312)" fill="#fff"/>
        <path id="Path_3238" data-name="Path 3238" d="M17.914,128.135,7.573,124.484l2.85-8.071,10.34,3.651-.451,1.278-9.127-3.223-1.947,5.515,9.127,3.223Z" transform="translate(-4.278 -65.755)" fill="#fff"/>
        <path id="Path_3239" data-name="Path 3239" d="M30.465,105.4l-7.808-8.53.916-1.651,11.37,2.11-.683,1.232L23.7,96.633l.207-.373,7.245,7.912Zm-1.387-2.79L27.966,102l2.764-4.981,1.112.617Z" transform="translate(-12.798 -53.787)" fill="#fff"/>
        <rect id="Rectangle_114" data-name="Rectangle 114" width="4.569" height="1.12" transform="matrix(0.653, -0.757, 0.757, 0.653, 22.709, 33.84)" fill="#fff"/>
      </g>
    </g>
  </g>
</svg>
