<svg xmlns="http://www.w3.org/2000/svg" width="25.171" height="25.5" viewBox="0 0 25.171 25.5">
  <path id="Path_3502" data-name="Path 3502" d="M15.385,3.57a12.89,12.89,0,0,1-4.972-.952A12.39,12.39,0,0,1,6.384-.043,12.264,12.264,0,0,1,3.689-4.063,12.843,12.843,0,0,1,2.72-9.078a13.76,13.76,0,0,1,.918-5.075,12.184,12.184,0,0,1,2.609-4.08,11.932,11.932,0,0,1,4.055-2.72,13.619,13.619,0,0,1,5.253-.978,13.831,13.831,0,0,1,5.585,1.046,10.991,10.991,0,0,1,3.935,2.813,11.025,11.025,0,0,1,2.244,3.97,12.164,12.164,0,0,1,.544,4.514,7.726,7.726,0,0,1-1.59,4.734A4.629,4.629,0,0,1,22.644-3.3a4.854,4.854,0,0,1-2.754-.748,3.589,3.589,0,0,1-1.5-2.125l.731.119A3.469,3.469,0,0,1,17.4-4.344a5.735,5.735,0,0,1-2.423.536,5.107,5.107,0,0,1-2.559-.621A4.359,4.359,0,0,1,10.71-6.171,5.31,5.31,0,0,1,10.1-8.755a5.233,5.233,0,0,1,.637-2.643,4.473,4.473,0,0,1,1.743-1.726,5.141,5.141,0,0,1,2.533-.612,6.134,6.134,0,0,1,2.278.467,3.518,3.518,0,0,1,1.8,1.573l-.663.714V-13.26h1.564l-.017,5.219a3.414,3.414,0,0,0,.638,2.108,2.539,2.539,0,0,0,2.167.85A2.633,2.633,0,0,0,24.4-5.6,3.49,3.49,0,0,0,25.5-7.081a6.721,6.721,0,0,0,.476-2.286,11.69,11.69,0,0,0-.6-4.548,8.937,8.937,0,0,0-2.142-3.391,9.431,9.431,0,0,0-3.358-2.117,12.129,12.129,0,0,0-4.267-.722,11.468,11.468,0,0,0-4.675.9A10.1,10.1,0,0,0,7.48-16.788a10.622,10.622,0,0,0-2.134,3.544,12.1,12.1,0,0,0-.722,4.165A11.032,11.032,0,0,0,5.483-4.8,10.828,10.828,0,0,0,7.8-1.343a10.6,10.6,0,0,0,3.46,2.3,10.924,10.924,0,0,0,4.241.825,12.005,12.005,0,0,0,3.17-.434,10.477,10.477,0,0,0,2.814-1.2l.7,1.53a12.125,12.125,0,0,1-3.3,1.428A13.631,13.631,0,0,1,15.385,3.57Zm-.306-9.2a3.119,3.119,0,0,0,2.227-.8,3.09,3.09,0,0,0,.85-2.363,3.114,3.114,0,0,0-.85-2.38,3.1,3.1,0,0,0-2.21-.8,3.156,3.156,0,0,0-2.346.825,3.205,3.205,0,0,0-.816,2.355,3.09,3.09,0,0,0,.85,2.363A3.215,3.215,0,0,0,15.079-5.627Z" transform="translate(-2.72 21.93)" fill="#272f68"/>
</svg>
