<svg xmlns="http://www.w3.org/2000/svg" xmlns:xlink="http://www.w3.org/1999/xlink" width="22.176" height="22.203" viewBox="0 0 22.176 22.203">
  <defs>
    <clipPath id="clip-path">
      <rect id="Rectangle_163" data-name="Rectangle 163" width="22.176" height="22.203" fill="#272f68"/>
    </clipPath>
  </defs>
  <g id="Group_173" data-name="Group 173" transform="translate(0 0)">
    <g id="Group_172" data-name="Group 172" transform="translate(0 0)" clip-path="url(#clip-path)">
      <path id="Path_3265" data-name="Path 3265" d="M14.048,23.454a4.987,4.987,0,0,0-.1-7,.839.839,0,0,0-.789-.285.809.809,0,0,0-.676.57.872.872,0,0,0,.25.94,3.332,3.332,0,0,1-.056,4.73q-2.607,2.63-5.235,5.237a3.372,3.372,0,0,1-5.659-1.778A3.377,3.377,0,0,1,2.7,22.844q.889-.9,1.788-1.791l.435-.433a.852.852,0,0,0,.291-.77.8.8,0,0,0-.57-.7.805.805,0,0,0-.894.208q-.766.758-1.525,1.523l-.734.735A5.083,5.083,0,0,0,0,25.283l.01.146c.008.136.018.3.043.463a4.828,4.828,0,0,0,3.271,4.093,4.758,4.758,0,0,0,5.181-1c2.055-1.937,4.042-3.975,5.543-5.533" transform="translate(0 -8.141)" fill="#272f68"/>
      <path id="Path_3266" data-name="Path 3266" d="M28.3,8.682a5.117,5.117,0,0,0,1.084-5.57A5.2,5.2,0,0,0,24.352,0a4.611,4.611,0,0,0-3.109,1.337c-1.735,1.694-3.284,3.242-4.734,4.733a5,5,0,0,0,.031,7.017.863.863,0,1,0,1.249-1.181,3.336,3.336,0,0,1,.055-4.75q2.232-2.25,4.483-4.483a3.237,3.237,0,0,1,2.964-.894,3.135,3.135,0,0,1,2.6,2.281,3.281,3.281,0,0,1-.829,3.431c-.36.366-.723.728-1.087,1.09l-.4.4a.827.827,0,0,0-.268.712.857.857,0,0,0,1.457.525c.5-.488,1-.986,1.489-1.485Z" transform="translate(-7.603 0)" fill="#272f68"/>
    </g>
  </g>
</svg>
