<svg xmlns="http://www.w3.org/2000/svg" xmlns:xlink="http://www.w3.org/1999/xlink" width="675" height="273" viewBox="0 0 675 273">
  <defs>
    <filter id="Rectangle_84" x="0" y="0" width="675" height="273" filterUnits="userSpaceOnUse">
      <feOffset dy="10" input="SourceAlpha"/>
      <feGaussianBlur stdDeviation="15" result="blur"/>
      <feFlood flood-opacity="0.302"/>
      <feComposite operator="in" in2="blur"/>
      <feComposite in="SourceGraphic"/>
    </filter>
  </defs>
  <g id="Group_212" data-name="Group 212" transform="translate(-550.675 -2317.104)">
    <g transform="matrix(1, 0, 0, 1, 550.67, 2317.1)" filter="url(#Rectangle_84)">
      <rect id="Rectangle_84-2" data-name="Rectangle 84" width="585" height="183" transform="translate(45 35)" fill="#346de7"/>
    </g>
    <g id="Group_141" data-name="Group 141" transform="translate(632.589 2384.864)">
      <path id="Path_3242" data-name="Path 3242" d="M3.7-4.758V-8.711H17.859v3.953Zm3.891-22.41h6.318l6.848,22.41H16.4L10.7-23.185,5.1-4.758H.74ZM27.741-4.634a7.915,7.915,0,0,1-1.79-.584,4.017,4.017,0,0,1-1.634-1.533,4.361,4.361,0,0,1-.724-2.272q-.023-1.167-.023-2.864v-9.68H27.8v9.431q0,1.027.023,1.774a2.566,2.566,0,0,0,.319,1.245,1.826,1.826,0,0,0,.8.7,3.132,3.132,0,0,0,.973.265,10.365,10.365,0,0,0,1.338.008q.731-.039,1.4-.132v3.517a7.681,7.681,0,0,1-1.572.249,16.436,16.436,0,0,1-1.821.023A12.052,12.052,0,0,1,27.741-4.634Zm14.971.342a8.556,8.556,0,0,1-4.451-1.136,7.886,7.886,0,0,1-2.98-3.136,9.627,9.627,0,0,1-1.066-4.6,9.526,9.526,0,0,1,1.089-4.63,7.94,7.94,0,0,1,3-3.12,8.556,8.556,0,0,1,4.4-1.121A8.6,8.6,0,0,1,47.171-20.9a7.924,7.924,0,0,1,3,3.136,9.57,9.57,0,0,1,1.074,4.6,9.548,9.548,0,0,1-1.082,4.614,7.924,7.924,0,0,1-3,3.128A8.613,8.613,0,0,1,42.713-4.292Zm0-3.953a3.518,3.518,0,0,0,3.042-1.377,5.862,5.862,0,0,0,1-3.541,5.762,5.762,0,0,0-1.019-3.579,3.567,3.567,0,0,0-3.027-1.338,3.867,3.867,0,0,0-2.272.623,3.664,3.664,0,0,0-1.315,1.727,7.084,7.084,0,0,0-.428,2.568,5.755,5.755,0,0,0,1.019,3.587A3.541,3.541,0,0,0,42.713-8.245ZM58.4-23.9H55.256l2.583-6.069h3.144Zm.451,19.267a7.916,7.916,0,0,1-1.79-.584,4.017,4.017,0,0,1-1.634-1.533A4.361,4.361,0,0,1,54.7-9.023q-.023-1.167-.023-2.864v-9.68h4.233v9.431q0,1.027.023,1.774a2.566,2.566,0,0,0,.319,1.245,1.826,1.826,0,0,0,.8.7,3.132,3.132,0,0,0,.973.265,10.365,10.365,0,0,0,1.338.008q.731-.039,1.4-.132v3.517a7.681,7.681,0,0,1-1.572.249,16.436,16.436,0,0,1-1.821.023A12.053,12.053,0,0,1,58.851-4.634Zm8.31-.125.031-16.808h4.3v8.093l5.7-8.093h5.229l-6.069,8.4,6.474,8.4H77.308l-5.82-8.093v8.093Zm28.355,0V-12.7q0-.576-.062-1.471a6.613,6.613,0,0,0-.389-1.8A3.429,3.429,0,0,0,94-17.473a3.216,3.216,0,0,0-2.093-.607,4.413,4.413,0,0,0-1.167.171,2.885,2.885,0,0,0-1.167.661,3.551,3.551,0,0,0-.895,1.44,7.452,7.452,0,0,0-.35,2.521L85.9-14.438a8.761,8.761,0,0,1,.809-3.735,6.7,6.7,0,0,1,2.436-2.817,7.3,7.3,0,0,1,4.1-1.074,6.782,6.782,0,0,1,3.221.669A5.309,5.309,0,0,1,98.4-19.7a7.059,7.059,0,0,1,.988,2.14,10.832,10.832,0,0,1,.358,2.031q.062.918.062,1.338v9.431Zm-11.485,0V-21.566H87.8v5.571h.529V-4.758Zm26.768.467a8.422,8.422,0,0,1-4.451-1.159,8.123,8.123,0,0,1-2.98-3.12,9.005,9.005,0,0,1-1.066-4.373,9.151,9.151,0,0,1,.763-3.766,8.1,8.1,0,0,1,2.155-2.9,8.031,8.031,0,0,1,3.276-1.673,9.52,9.52,0,0,1,2.039-.249q1.167-.031,2.755-.031h6.972v3.735h-4.046l.9-1.121a9.382,9.382,0,0,1,1.572,2.638,8.834,8.834,0,0,1,.638,3.369,8.933,8.933,0,0,1-1.082,4.389,8.164,8.164,0,0,1-3,3.113A8.476,8.476,0,0,1,110.8-4.292Zm0-3.953a3.534,3.534,0,0,0,3.043-1.362,5.47,5.47,0,0,0,1-3.338,5.353,5.353,0,0,0-1.019-3.315,3.55,3.55,0,0,0-3.027-1.354,3.764,3.764,0,0,0-2.272.646,3.841,3.841,0,0,0-1.315,1.7,6.129,6.129,0,0,0-.428,2.319A5.365,5.365,0,0,0,107.8-9.56,3.559,3.559,0,0,0,110.8-8.245Zm23.718,3.486V-12.7q0-.576-.062-1.471a6.612,6.612,0,0,0-.389-1.8A3.428,3.428,0,0,0,133-17.473a3.216,3.216,0,0,0-2.093-.607,4.413,4.413,0,0,0-1.167.171,2.885,2.885,0,0,0-1.167.661,3.551,3.551,0,0,0-.895,1.44,7.452,7.452,0,0,0-.35,2.521L124.9-14.438a8.761,8.761,0,0,1,.809-3.735,6.7,6.7,0,0,1,2.436-2.817,7.3,7.3,0,0,1,4.1-1.074,6.782,6.782,0,0,1,3.221.669,5.309,5.309,0,0,1,1.938,1.7,7.059,7.059,0,0,1,.988,2.14,10.83,10.83,0,0,1,.358,2.031q.062.918.062,1.338v9.431Zm-11.485,0V-21.566H126.8v5.571h.529V-4.758Zm32.993.467a8.422,8.422,0,0,1-4.451-1.159,8.123,8.123,0,0,1-2.98-3.12,9.005,9.005,0,0,1-1.066-4.373,9.151,9.151,0,0,1,.763-3.766,8.1,8.1,0,0,1,2.155-2.9,8.031,8.031,0,0,1,3.276-1.673,9.52,9.52,0,0,1,2.039-.249q1.167-.031,2.755-.031h6.972v3.735H161.44l.9-1.121a9.382,9.382,0,0,1,1.572,2.638,8.834,8.834,0,0,1,.638,3.369,8.933,8.933,0,0,1-1.082,4.389,8.164,8.164,0,0,1-3,3.113A8.476,8.476,0,0,1,156.024-4.292Zm0-3.953a3.534,3.534,0,0,0,3.043-1.362,5.47,5.47,0,0,0,1-3.338,5.353,5.353,0,0,0-1.019-3.315,3.55,3.55,0,0,0-3.027-1.354,3.764,3.764,0,0,0-2.272.646,3.841,3.841,0,0,0-1.315,1.7,6.129,6.129,0,0,0-.428,2.319,5.365,5.365,0,0,0,1.019,3.385A3.559,3.559,0,0,0,156.024-8.245Zm18.3,3.953a9.381,9.381,0,0,1-3.455-.623,5.907,5.907,0,0,1-2.552-1.852,4.764,4.764,0,0,1-.965-3.035,5.191,5.191,0,0,1,.3-1.805,4.44,4.44,0,0,1,.872-1.455,4.734,4.734,0,0,1,1.346-1.035l-.031,1.338a6.582,6.582,0,0,1-1.486-2.07,5.4,5.4,0,0,1-.444-2.132,4.4,4.4,0,0,1,.895-2.825,5.42,5.42,0,0,1,2.334-1.689,8.357,8.357,0,0,1,3.058-.56,9.56,9.56,0,0,1,3.673.724,11.878,11.878,0,0,1,3.175,1.922l-2.334,2.895a11.293,11.293,0,0,0-2.07-1.136,5.738,5.738,0,0,0-2.257-.482,3.08,3.08,0,0,0-1.478.342,1.257,1.257,0,0,0-.638,1.214,1.154,1.154,0,0,0,.918,1.268,9.456,9.456,0,0,0,2.225.226h1v3.3h-1q-.872,0-1.735.016a3.073,3.073,0,0,0-1.432.327,1.226,1.226,0,0,0-.568,1.183,1.735,1.735,0,0,0,.708,1.447,3.161,3.161,0,0,0,1.969.545,4.892,4.892,0,0,0,2.233-.514,7.253,7.253,0,0,0,1.906-1.416l3.33,2.241a7.767,7.767,0,0,1-3.136,2.669A9.846,9.846,0,0,1,174.326-4.292Zm15.905-.467v-22.41h4.3l9.742,14.94v-14.94h4.3v22.41h-4.3L194.526-19.7v14.94Zm29.289.467a7.349,7.349,0,0,1-4.147-1.167,7.731,7.731,0,0,1-2.731-3.175,10.324,10.324,0,0,1-.965-4.529,10.177,10.177,0,0,1,.988-4.568,7.737,7.737,0,0,1,2.778-3.151,7.594,7.594,0,0,1,4.2-1.152,7.2,7.2,0,0,1,3,.6,6.513,6.513,0,0,1,2.257,1.673l-.622.778v-2.583h3.735V-4.758h-3.735V-7.373l.622.778a6.538,6.538,0,0,1-2.319,1.689A7.475,7.475,0,0,1,219.52-4.292Zm.685-3.766a3.5,3.5,0,0,0,2.187-.638,3.566,3.566,0,0,0,1.206-1.79,8.688,8.688,0,0,0,.374-2.677,8.688,8.688,0,0,0-.374-2.677,3.61,3.61,0,0,0-1.191-1.79,3.378,3.378,0,0,0-2.14-.638,3.852,3.852,0,0,0-2.194.615,3.94,3.94,0,0,0-1.416,1.766,6.913,6.913,0,0,0-.5,2.755,7.478,7.478,0,0,0,.412,2.537,3.957,3.957,0,0,0,1.307,1.844A3.694,3.694,0,0,0,220.2-8.058Zm11.547-4.389v-9.12h4.3v7.937q0,.576.062,1.471a6.612,6.612,0,0,0,.389,1.8,3.428,3.428,0,0,0,1.066,1.51,3.216,3.216,0,0,0,2.093.607,3.216,3.216,0,0,0,2.093-.607,3.429,3.429,0,0,0,1.066-1.51,6.612,6.612,0,0,0,.389-1.8q.062-.895.062-1.471v-7.937h4.3v9.12q0,.825-.086,1.9a9.151,9.151,0,0,1-.451,2.171,5.734,5.734,0,0,1-1.206,2.031,5.959,5.959,0,0,1-2.327,1.51,10.768,10.768,0,0,1-3.836.576,10.768,10.768,0,0,1-3.836-.576,5.959,5.959,0,0,1-2.327-1.51,5.734,5.734,0,0,1-1.206-2.031,9.153,9.153,0,0,1-.451-2.171Q231.752-11.622,231.752-12.446Zm27.826,7.812a7.915,7.915,0,0,1-1.79-.584,4.017,4.017,0,0,1-1.634-1.533,4.362,4.362,0,0,1-.724-2.272q-.023-1.167-.023-2.864v-5.945H249.9v-3.735H265.15v3.735h-5.509v5.7q0,1.027.023,1.774a2.566,2.566,0,0,0,.319,1.245,1.826,1.826,0,0,0,.8.7,3.132,3.132,0,0,0,.973.265,10.365,10.365,0,0,0,1.338.008q.731-.039,1.4-.132v3.517a7.681,7.681,0,0,1-1.572.249,16.436,16.436,0,0,1-1.821.023A12.053,12.053,0,0,1,259.578-4.634Zm13.493,0a7.916,7.916,0,0,1-1.79-.584,4.017,4.017,0,0,1-1.634-1.533,4.362,4.362,0,0,1-.724-2.272q-.023-1.167-.023-2.864v-9.68h4.233v9.431q0,1.027.023,1.774a2.566,2.566,0,0,0,.319,1.245,1.826,1.826,0,0,0,.8.7,3.133,3.133,0,0,0,.973.265,10.365,10.365,0,0,0,1.338.008q.731-.039,1.4-.132v3.517a7.681,7.681,0,0,1-1.572.249,16.437,16.437,0,0,1-1.821.023A12.053,12.053,0,0,1,273.071-4.634Zm7.408-.125,6.1-16.808a5.057,5.057,0,0,0-.809-1.393,2.513,2.513,0,0,0-1.128-.747,5.467,5.467,0,0,0-1.7-.226h-.809v-3.7h1.214q.264,0,1.1.031a8.49,8.49,0,0,1,1.634.218A4.589,4.589,0,0,1,288.33-26.2a7.283,7.283,0,0,1,1.432,2.07q.568,1.206,1.051,2.56l6.1,16.808H292.68L288.7-16.4,284.712-4.758ZM303.449-23.9h-3.144l2.583-6.069h3.144ZM303.9-4.634a7.916,7.916,0,0,1-1.79-.584,4.017,4.017,0,0,1-1.634-1.533,4.362,4.362,0,0,1-.724-2.272q-.023-1.167-.023-2.864v-9.68h4.233v9.431q0,1.027.023,1.774a2.566,2.566,0,0,0,.319,1.245,1.825,1.825,0,0,0,.8.7,3.132,3.132,0,0,0,.973.265,10.365,10.365,0,0,0,1.338.008q.732-.039,1.4-.132v3.517a7.681,7.681,0,0,1-1.572.249,16.437,16.437,0,0,1-1.821.023A12.054,12.054,0,0,1,303.9-4.634Zm14.318.342a7.349,7.349,0,0,1-4.147-1.167,7.731,7.731,0,0,1-2.731-3.175,10.324,10.324,0,0,1-.965-4.529,10.178,10.178,0,0,1,.988-4.568,7.738,7.738,0,0,1,2.778-3.151,7.594,7.594,0,0,1,4.2-1.152,7.2,7.2,0,0,1,3,.6,6.513,6.513,0,0,1,2.257,1.673l-.623.778v-2.583h3.735V-4.758h-3.735V-7.373l.623.778a6.539,6.539,0,0,1-2.319,1.689A7.475,7.475,0,0,1,318.218-4.292Zm.685-3.766A3.5,3.5,0,0,0,321.09-8.7a3.566,3.566,0,0,0,1.206-1.79,8.688,8.688,0,0,0,.374-2.677,8.688,8.688,0,0,0-.374-2.677,3.609,3.609,0,0,0-1.191-1.79,3.378,3.378,0,0,0-2.14-.638,3.852,3.852,0,0,0-2.194.615,3.941,3.941,0,0,0-1.416,1.766,6.913,6.913,0,0,0-.5,2.755,7.477,7.477,0,0,0,.412,2.537,3.957,3.957,0,0,0,1.307,1.844A3.694,3.694,0,0,0,318.9-8.058Zm17.741,3.3.031-16.808h4.3v8.093l5.7-8.093H351.9l-6.069,8.4,6.474,8.4h-5.509l-5.82-8.093v8.093Zm23.5.467A7.349,7.349,0,0,1,356-5.459a7.732,7.732,0,0,1-2.731-3.175,10.323,10.323,0,0,1-.965-4.529,10.178,10.178,0,0,1,.988-4.568,7.738,7.738,0,0,1,2.778-3.151,7.594,7.594,0,0,1,4.2-1.152,7.2,7.2,0,0,1,3,.6,6.513,6.513,0,0,1,2.257,1.673l-.623.778v-2.583h3.735V-4.758h-3.735V-7.373l.623.778a6.539,6.539,0,0,1-2.319,1.689A7.475,7.475,0,0,1,360.144-4.292Zm.685-3.766a3.5,3.5,0,0,0,2.187-.638,3.566,3.566,0,0,0,1.206-1.79,8.688,8.688,0,0,0,.373-2.677,8.688,8.688,0,0,0-.373-2.677,3.61,3.61,0,0,0-1.191-1.79,3.378,3.378,0,0,0-2.14-.638,3.852,3.852,0,0,0-2.194.615,3.94,3.94,0,0,0-1.416,1.766,6.914,6.914,0,0,0-.5,2.755,7.478,7.478,0,0,0,.412,2.537A3.957,3.957,0,0,0,358.5-8.75,3.694,3.694,0,0,0,360.829-8.058Zm16.356,3.424a7.914,7.914,0,0,1-1.79-.584,4.016,4.016,0,0,1-1.634-1.533,4.361,4.361,0,0,1-.724-2.272q-.023-1.167-.023-2.864v-9.68h4.233v9.431q0,1.027.023,1.774a2.566,2.566,0,0,0,.319,1.245,1.826,1.826,0,0,0,.8.7,3.133,3.133,0,0,0,.973.265,10.365,10.365,0,0,0,1.338.008q.731-.039,1.4-.132v3.517a7.681,7.681,0,0,1-1.572.249,16.435,16.435,0,0,1-1.821.023A12.052,12.052,0,0,1,377.185-4.634Zm19.08-22.535h6.318l6.848,22.41h-4.358l-5.7-18.426-5.6,18.426h-4.358ZM415.952-4.634a7.915,7.915,0,0,1-1.79-.584,4.016,4.016,0,0,1-1.634-1.533,4.362,4.362,0,0,1-.724-2.272q-.023-1.167-.023-2.864v-9.68h4.233v9.431q0,1.027.023,1.774a2.566,2.566,0,0,0,.319,1.245,1.826,1.826,0,0,0,.8.7,3.132,3.132,0,0,0,.973.265,10.365,10.365,0,0,0,1.338.008q.732-.039,1.4-.132v3.517a7.681,7.681,0,0,1-1.572.249,16.436,16.436,0,0,1-1.821.023A12.054,12.054,0,0,1,415.952-4.634Zm8.311,7.346V-21.566h4.3v7.937q0,.576.062,1.471a6.611,6.611,0,0,0,.389,1.8,3.429,3.429,0,0,0,1.066,1.51,3.216,3.216,0,0,0,2.093.607,4.413,4.413,0,0,0,1.167-.171,2.885,2.885,0,0,0,1.167-.661,3.548,3.548,0,0,0,.895-1.447,7.463,7.463,0,0,0,.35-2.513v-8.528h4.264V-4.758h-3.735V-6.5a6.471,6.471,0,0,1-2.264,1.634,7.758,7.758,0,0,1-3.183.607,8.319,8.319,0,0,1-1.541-.132A7.1,7.1,0,0,1,428-4.758v7.47ZM451.03-23.9h-3.144l2.583-6.069h3.144ZM450.1-4.292a9.381,9.381,0,0,1-3.455-.623,5.906,5.906,0,0,1-2.552-1.852,4.764,4.764,0,0,1-.965-3.035,5.19,5.19,0,0,1,.3-1.805,4.44,4.44,0,0,1,.871-1.455,4.734,4.734,0,0,1,1.346-1.035l-.031,1.338a6.582,6.582,0,0,1-1.486-2.07,5.4,5.4,0,0,1-.444-2.132,4.4,4.4,0,0,1,.895-2.825,5.421,5.421,0,0,1,2.334-1.689,8.357,8.357,0,0,1,3.058-.56,9.56,9.56,0,0,1,3.673.724,11.879,11.879,0,0,1,3.175,1.922l-2.334,2.895a11.293,11.293,0,0,0-2.07-1.136,5.737,5.737,0,0,0-2.257-.482,3.08,3.08,0,0,0-1.479.342,1.257,1.257,0,0,0-.638,1.214,1.154,1.154,0,0,0,.918,1.268,9.456,9.456,0,0,0,2.225.226h1v3.3h-1q-.872,0-1.735.016a3.072,3.072,0,0,0-1.432.327,1.226,1.226,0,0,0-.568,1.183,1.735,1.735,0,0,0,.708,1.447,3.161,3.161,0,0,0,1.969.545,4.893,4.893,0,0,0,2.233-.514,7.255,7.255,0,0,0,1.906-1.416l3.33,2.241a7.767,7.767,0,0,1-3.136,2.669A9.846,9.846,0,0,1,450.1-4.292Zm14.224-.467-6.1-16.808h4.233l3.984,11.641,3.984-11.641h4.233l-6.1,16.808Zm18.862.467a9.381,9.381,0,0,1-3.455-.623,5.907,5.907,0,0,1-2.552-1.852,4.764,4.764,0,0,1-.965-3.035,5.191,5.191,0,0,1,.3-1.805,4.439,4.439,0,0,1,.872-1.455,4.734,4.734,0,0,1,1.346-1.035l-.031,1.338a6.582,6.582,0,0,1-1.486-2.07,5.4,5.4,0,0,1-.444-2.132,4.4,4.4,0,0,1,.895-2.825A5.42,5.42,0,0,1,480-21.473a8.357,8.357,0,0,1,3.058-.56,9.56,9.56,0,0,1,3.673.724,11.879,11.879,0,0,1,3.175,1.922l-2.334,2.895a11.292,11.292,0,0,0-2.07-1.136,5.737,5.737,0,0,0-2.257-.482,3.08,3.08,0,0,0-1.478.342,1.257,1.257,0,0,0-.638,1.214,1.154,1.154,0,0,0,.918,1.268,9.455,9.455,0,0,0,2.225.226h1v3.3h-1q-.872,0-1.735.016a3.073,3.073,0,0,0-1.432.327,1.226,1.226,0,0,0-.568,1.183,1.735,1.735,0,0,0,.708,1.447,3.161,3.161,0,0,0,1.969.545,4.893,4.893,0,0,0,2.233-.514,7.253,7.253,0,0,0,1.906-1.416l3.33,2.241a7.768,7.768,0,0,1-3.136,2.669A9.846,9.846,0,0,1,483.183-4.292Zm21.1,3.268a4.1,4.1,0,0,0-.63-2.583,2.676,2.676,0,0,0-1.712-.934,20.206,20.206,0,0,0-2.451-.218,8.72,8.72,0,0,1-2.218-.342,7.273,7.273,0,0,1-1.984-.918,6.215,6.215,0,0,1-1.6-1.548,7.219,7.219,0,0,1-1.066-2.257,10.893,10.893,0,0,1-.381-3.027,10.681,10.681,0,0,1,1.035-4.848,7.648,7.648,0,0,1,2.918-3.2,8.452,8.452,0,0,1,4.451-1.136,8.114,8.114,0,0,1,4.988,1.5,6.683,6.683,0,0,1,2.576,4.1l-4.233,1.121a4.034,4.034,0,0,0-1.284-2.039,3.413,3.413,0,0,0-2.233-.731,2.964,2.964,0,0,0-2.008.646,3.648,3.648,0,0,0-1.082,1.782,9.149,9.149,0,0,0-.335,2.583,8.271,8.271,0,0,0,.179,1.8,3.27,3.27,0,0,0,.63,1.362,2.861,2.861,0,0,0,1.268.864,6.562,6.562,0,0,0,2.093.335q.374,0,1.066.016t1.478.109a6.031,6.031,0,0,1,1.44.342,4.016,4.016,0,0,1,1.9,1.471,5.8,5.8,0,0,1,.941,2.49,10.378,10.378,0,0,1-.07,3.26Z" transform="translate(-0.157 70.903)" fill="#fff"/>
      <path id="Path_3241" data-name="Path 3241" d="M1.26-2.1V-13H8.074v1.068h-5.7v3.77H7.165V-7.1H2.373v3.929h5.7V-2.1Zm9.388,0V-13h1.121l6,8.934V-13h1.121V-2.1H17.772l-6-8.941V-2.1Zm14.022,0v-9.835H20.861V-13h8.729v1.068H25.783V-2.1Zm5.83,0L34.255-13h1.476L39.486-2.1H38.328L34.762-12.382H35.2L31.658-2.1Zm1.673-2.642V-5.788h5.633v1.045ZM43.6-2.1v-9.835H39.789V-13h8.729v1.068H44.71V-2.1Zm7.041,0V-13h1.113V-2.1Zm4.141,0V-13h1.113v5.148L60.867-13H62.29L57.21-7.741l5.5,5.64H61.253l-5.36-5.451V-2.1Zm13.651.227A4.965,4.965,0,0,1,65.682-2.6a4.535,4.535,0,0,1-1.7-2,7.134,7.134,0,0,1-.575-2.953,7.134,7.134,0,0,1,.575-2.953,4.535,4.535,0,0,1,1.7-2,4.965,4.965,0,0,1,2.748-.723,4.96,4.96,0,0,1,2.752.723,4.568,4.568,0,0,1,1.7,2,7.094,7.094,0,0,1,.579,2.953A7.094,7.094,0,0,1,72.878-4.6a4.568,4.568,0,0,1-1.7,2A4.96,4.96,0,0,1,68.43-1.873Zm0-1.068a3.706,3.706,0,0,0,2.135-.583,3.533,3.533,0,0,0,1.283-1.624,6.286,6.286,0,0,0,.428-2.4,6.258,6.258,0,0,0-.428-2.4,3.535,3.535,0,0,0-1.283-1.62,3.747,3.747,0,0,0-2.135-.591,3.67,3.67,0,0,0-2.127.583,3.551,3.551,0,0,0-1.276,1.624,6.382,6.382,0,0,0-.435,2.4,6.138,6.138,0,0,0,.42,2.4A3.562,3.562,0,0,0,66.3-3.535,3.729,3.729,0,0,0,68.43-2.941Zm11.16.84V-3.168h7.336V-2.1ZM82.512-13h1.476L87.744-2.1H86.585l-3.346-9.638L79.915-2.1H78.757Zm7.5,10.9V-13h1.113V-2.1Zm3.384,0L97.155-13h1.476l3.755,10.9h-1.158L97.662-12.382H98.1L94.558-2.1Zm1.673-2.642V-5.788h5.633v1.045ZM106.5-2.1v-9.835h-3.808V-13h8.729v1.068H107.61V-2.1Zm6.89,0V-13h1.022l4.285,9.169L122.957-13h1.037V-2.108h-1.06V-10.52L119.05-2.1h-.719l-3.876-8.419V-2.1Zm13.484,0V-13h1.113v4.914h6.027V-13h1.105V-2.1H134.01V-7.022h-6.027V-2.1Zm11.122,0V-13h1.022L143.3-3.834,147.563-13H148.6V-2.108h-1.06V-10.52L143.656-2.1h-.719L139.06-10.52V-2.1Zm12.727,0L154.475-13h1.476l3.755,10.9h-1.158l-3.566-10.281h.439L151.878-2.1Zm1.673-2.642V-5.788h5.633v1.045ZM163.818-2.1v-9.835h-3.808V-13h8.729v1.068H164.93V-2.1Zm7.041,0V-13h1.113V-2.1ZM175-2.1V-13h1.113v5.148L181.087-13h1.423l-5.08,5.262,5.5,5.64h-1.454l-5.36-5.451V-2.1Zm13.651.227A4.965,4.965,0,0,1,185.9-2.6a4.536,4.536,0,0,1-1.7-2,7.134,7.134,0,0,1-.575-2.953,7.134,7.134,0,0,1,.575-2.953,4.536,4.536,0,0,1,1.7-2,4.965,4.965,0,0,1,2.748-.723,4.961,4.961,0,0,1,2.752.723,4.568,4.568,0,0,1,1.7,2,7.094,7.094,0,0,1,.579,2.953A7.094,7.094,0,0,1,193.1-4.6a4.568,4.568,0,0,1-1.7,2A4.961,4.961,0,0,1,188.65-1.873Zm0-1.068a3.706,3.706,0,0,0,2.135-.583,3.533,3.533,0,0,0,1.283-1.624,6.287,6.287,0,0,0,.428-2.4,6.258,6.258,0,0,0-.428-2.4,3.536,3.536,0,0,0-1.283-1.62,3.747,3.747,0,0,0-2.135-.591,3.67,3.67,0,0,0-2.127.583,3.551,3.551,0,0,0-1.276,1.624,6.382,6.382,0,0,0-.435,2.4,6.138,6.138,0,0,0,.42,2.4,3.561,3.561,0,0,0,1.283,1.62A3.729,3.729,0,0,0,188.65-2.941Zm11.084.84V-13h8.351V-2.1h-1.113v-9.835h-6.125V-2.1Zm11.228,0V-13h4.21q.159,0,.36.011a3.225,3.225,0,0,1,.405.049,3.036,3.036,0,0,1,1.45.594,2.966,2.966,0,0,1,.9,1.17,3.866,3.866,0,0,1,.307,1.56,3.805,3.805,0,0,1-.31,1.552,3,3,0,0,1-.9,1.17,3.029,3.029,0,0,1-1.442.594q-.2.03-.405.045t-.36.015h-3.1V-2.1Zm1.113-5.2h3.066q.136,0,.318-.015a2.748,2.748,0,0,0,.356-.053,1.884,1.884,0,0,0,.92-.462,2.152,2.152,0,0,0,.538-.81,2.733,2.733,0,0,0,.178-.977,2.764,2.764,0,0,0-.178-.98,2.146,2.146,0,0,0-.538-.814,1.884,1.884,0,0,0-.92-.462,2.369,2.369,0,0,0-.356-.049q-.182-.011-.318-.011h-3.066Zm13.2,5.428a4.965,4.965,0,0,1-2.748-.723,4.535,4.535,0,0,1-1.7-2,7.135,7.135,0,0,1-.575-2.953,7.135,7.135,0,0,1,.575-2.953,4.535,4.535,0,0,1,1.7-2,4.965,4.965,0,0,1,2.748-.723,4.961,4.961,0,0,1,2.752.723,4.568,4.568,0,0,1,1.7,2,7.094,7.094,0,0,1,.579,2.953,7.094,7.094,0,0,1-.579,2.953,4.568,4.568,0,0,1-1.7,2A4.961,4.961,0,0,1,225.279-1.873Zm0-1.068a3.706,3.706,0,0,0,2.135-.583A3.533,3.533,0,0,0,228.7-5.148a6.287,6.287,0,0,0,.428-2.4,6.258,6.258,0,0,0-.428-2.4,3.535,3.535,0,0,0-1.283-1.62,3.747,3.747,0,0,0-2.135-.591,3.67,3.67,0,0,0-2.127.583,3.551,3.551,0,0,0-1.276,1.624,6.382,6.382,0,0,0-.435,2.4,6.137,6.137,0,0,0,.42,2.4,3.562,3.562,0,0,0,1.283,1.62A3.729,3.729,0,0,0,225.279-2.941Zm7.3.84V-13h6.814v1.068h-5.7V-2.1Zm8.782,0V-13h4.209q.159,0,.36.011a3.224,3.224,0,0,1,.405.049,3.036,3.036,0,0,1,1.45.594,2.966,2.966,0,0,1,.9,1.17,3.865,3.865,0,0,1,.307,1.56,3.805,3.805,0,0,1-.31,1.552,3,3,0,0,1-.9,1.17,3.029,3.029,0,0,1-1.442.594q-.2.03-.405.045t-.36.015h-3.1V-2.1Zm1.113-5.2h3.066q.136,0,.318-.015a2.747,2.747,0,0,0,.356-.053,1.884,1.884,0,0,0,.92-.462,2.152,2.152,0,0,0,.538-.81,2.733,2.733,0,0,0,.178-.977,2.763,2.763,0,0,0-.178-.98,2.146,2.146,0,0,0-.538-.814,1.884,1.884,0,0,0-.92-.462,2.368,2.368,0,0,0-.356-.049q-.182-.011-.318-.011h-3.066Zm8.033,5.2L254.261-13h1.476l3.755,10.9h-1.158l-3.566-10.281h.439L251.664-2.1Zm1.673-2.642V-5.788h5.633v1.045ZM261.612-2.1V-13h1.022l4.285,9.169L271.182-13h1.037V-2.108h-1.06V-10.52L267.276-2.1h-.719L262.68-10.52V-2.1Zm13.484,0V-13h1.022L280.4-3.834,284.666-13H285.7V-2.108h-1.06V-10.52L280.76-2.1h-.719l-3.876-8.419V-2.1Zm12.727,0L291.579-13h1.476L296.81-2.1h-1.158l-3.566-10.281h.439L288.982-2.1ZM289.5-4.743V-5.788h5.633v1.045ZM302.716-2.1V-13h1.022l4.285,9.169L312.285-13h1.037V-2.108h-1.06V-10.52L308.379-2.1h-.719l-3.876-8.419V-2.1Zm13.484,0V-13h6.814v1.068h-5.7v3.77H322.1V-7.1h-4.792v3.929h5.7V-2.1Zm12.288,0v-9.835h-3.808V-13h8.729v1.068H329.6V-2.1Zm5.83,0L338.072-13h1.476L343.3-2.1h-1.158L338.58-12.382h.439L335.475-2.1Zm1.673-2.642V-5.788h5.633v1.045ZM345.424-2.1V-13h8.351V-2.1h-1.113v-9.835h-6.125V-2.1Zm14.128,0v-9.835h-3.808V-13h8.729v1.068h-3.808V-2.1Zm9.941,0V-6.666L365.835-13h1.287l2.93,5.065L372.967-13h1.287l-3.642,6.337V-2.1Zm5.368,0,3.778-5.519L374.958-13h1.348L379.3-8.551,382.287-13h1.355l-3.68,5.383,3.77,5.519h-1.348L379.3-6.681,376.215-2.1Zm10.993,0V-13h1.113V-2.1Zm3.384,0L392.993-13h1.476l3.755,10.9h-1.158L393.5-12.382h.439L390.4-2.1Zm1.673-2.642V-5.788h5.633v1.045ZM400.344-2.1V-13h1.113v5.148L406.431-13h1.423l-5.08,5.262,5.5,5.64h-1.454l-5.36-5.451V-2.1Zm8.684,0V-3.168h2.052a5.582,5.582,0,0,1-1.533-1.953,6.111,6.111,0,0,1-.572-2.7,6.4,6.4,0,0,1,.344-2.127,5.1,5.1,0,0,1,1-1.719,4.557,4.557,0,0,1,1.579-1.147,5.117,5.117,0,0,1,2.1-.413,5.144,5.144,0,0,1,2.1.413,4.547,4.547,0,0,1,1.582,1.147,5.1,5.1,0,0,1,1,1.719,6.4,6.4,0,0,1,.344,2.127,6.146,6.146,0,0,1-.568,2.7,5.506,5.506,0,0,1-1.537,1.953h2.044V-2.1h-3.574l.008-1.068a4.088,4.088,0,0,0,1.1-.882,5.147,5.147,0,0,0,.935-1.488,5.5,5.5,0,0,0,.409-2.029,5.633,5.633,0,0,0-.238-1.756,4.463,4.463,0,0,0-.753-1.461,3.593,3.593,0,0,0-1.219-1,3.576,3.576,0,0,0-1.635-.363,3.526,3.526,0,0,0-1.613.36,3.575,3.575,0,0,0-1.208.988,4.54,4.54,0,0,0-.757,1.446,5.662,5.662,0,0,0-.261,1.734A5.418,5.418,0,0,0,410.383-6a5.108,5.108,0,0,0,.6,1.291,4.815,4.815,0,0,0,.8.95,3.986,3.986,0,0,0,.833.591V-2.1Zm12.265,0V-13h1.121l6,8.934V-13h1.121V-2.1h-1.121l-6-8.941V-2.1Zm14.907,0V-3.123l4.361-4.429L436.2-11.966V-13h7.723v1.068h-6.155l4.21,4.255v.257l-4.21,4.255h5.966V-2.1Zm10.6,0V-13h8.351V-2.1h-1.113v-9.835h-6.125V-2.1Zm15.642.227a4.965,4.965,0,0,1-2.748-.723,4.535,4.535,0,0,1-1.7-2,7.134,7.134,0,0,1-.575-2.953A7.134,7.134,0,0,1,458-10.5a4.535,4.535,0,0,1,1.7-2,4.965,4.965,0,0,1,2.748-.723,4.961,4.961,0,0,1,2.752.723,4.568,4.568,0,0,1,1.7,2,7.093,7.093,0,0,1,.579,2.953,7.093,7.093,0,0,1-.579,2.953,4.568,4.568,0,0,1-1.7,2A4.961,4.961,0,0,1,462.442-1.873Zm0-1.068a3.706,3.706,0,0,0,2.135-.583,3.533,3.533,0,0,0,1.283-1.624,6.287,6.287,0,0,0,.428-2.4,6.258,6.258,0,0,0-.428-2.4,3.535,3.535,0,0,0-1.283-1.62,3.747,3.747,0,0,0-2.135-.591,3.67,3.67,0,0,0-2.127.583,3.55,3.55,0,0,0-1.276,1.624,6.381,6.381,0,0,0-.435,2.4,6.139,6.139,0,0,0,.42,2.4,3.562,3.562,0,0,0,1.283,1.62A3.729,3.729,0,0,0,462.442-2.941Zm9.441.84V-6.666L468.226-13h1.287l2.93,5.065L475.358-13h1.287L473-6.666V-2.1Zm5.595,0V-3.168h7.336V-2.1ZM480.4-13h1.476l3.755,10.9h-1.158l-3.346-9.638L477.8-2.1h-1.158Zm6.5,10.9V-3.168h2.052a5.583,5.583,0,0,1-1.533-1.953,6.112,6.112,0,0,1-.572-2.7,6.4,6.4,0,0,1,.345-2.127,5.1,5.1,0,0,1,1-1.719,4.556,4.556,0,0,1,1.579-1.147,5.117,5.117,0,0,1,2.1-.413,5.144,5.144,0,0,1,2.1.413,4.547,4.547,0,0,1,1.582,1.147,5.1,5.1,0,0,1,1,1.719,6.4,6.4,0,0,1,.344,2.127,6.147,6.147,0,0,1-.568,2.7,5.506,5.506,0,0,1-1.537,1.953h2.044V-2.1h-3.574l.008-1.068a4.087,4.087,0,0,0,1.1-.882,5.145,5.145,0,0,0,.935-1.488,5.5,5.5,0,0,0,.409-2.029,5.632,5.632,0,0,0-.238-1.756,4.461,4.461,0,0,0-.753-1.461,3.593,3.593,0,0,0-1.219-1,3.576,3.576,0,0,0-1.635-.363,3.525,3.525,0,0,0-1.613.36,3.574,3.574,0,0,0-1.208.988,4.538,4.538,0,0,0-.757,1.446,5.662,5.662,0,0,0-.261,1.734A5.417,5.417,0,0,0,488.251-6a5.106,5.106,0,0,0,.6,1.291,4.817,4.817,0,0,0,.8.95,3.987,3.987,0,0,0,.833.591V-2.1Zm12.265,0V-13h1.12l6,8.934V-13h1.12V-2.1h-1.12l-6-8.941V-2.1Z" transform="translate(0.24 13.23)" fill="#fff"/>
      <path id="Path_3244" data-name="Path 3244" d="M.85-1.991l.007-.958,4.655-4.2a2.967,2.967,0,0,0,.8-1.033,2.729,2.729,0,0,0,.2-1.026,2.242,2.242,0,0,0-.3-1.151,2.274,2.274,0,0,0-.808-.819,2.171,2.171,0,0,0-1.137-.3,2.2,2.2,0,0,0-1.173.315,2.312,2.312,0,0,0-.812.829,2.156,2.156,0,0,0-.29,1.123H.914a3.218,3.218,0,0,1,.443-1.68,3.2,3.2,0,0,1,1.2-1.169A3.445,3.445,0,0,1,4.275-12.5a3.257,3.257,0,0,1,1.684.44,3.239,3.239,0,0,1,1.18,1.187,3.258,3.258,0,0,1,.433,1.662,3.79,3.79,0,0,1-.154,1.133,2.87,2.87,0,0,1-.479.908,6.517,6.517,0,0,1-.826.862L1.98-2.57,1.815-3H7.571v1.008Zm12.513.222a3.341,3.341,0,0,1-1.713-.443,3.282,3.282,0,0,1-1.2-1.2A3.341,3.341,0,0,1,10-5.13v-4a3.341,3.341,0,0,1,.443-1.713,3.282,3.282,0,0,1,1.2-1.2,3.341,3.341,0,0,1,1.713-.443,3.341,3.341,0,0,1,1.713.443,3.282,3.282,0,0,1,1.2,1.2,3.341,3.341,0,0,1,.443,1.713v4a3.341,3.341,0,0,1-.443,1.713,3.282,3.282,0,0,1-1.2,1.2A3.341,3.341,0,0,1,13.363-1.769Zm0-1.015A2.22,2.22,0,0,0,14.522-3.1a2.334,2.334,0,0,0,.829-.833,2.227,2.227,0,0,0,.307-1.151v-4.1a2.24,2.24,0,0,0-.307-1.158,2.334,2.334,0,0,0-.829-.833,2.22,2.22,0,0,0-1.158-.311,2.22,2.22,0,0,0-1.158.311,2.334,2.334,0,0,0-.829.833,2.24,2.24,0,0,0-.307,1.158v4.1a2.227,2.227,0,0,0,.307,1.151A2.334,2.334,0,0,0,12.2-3.1,2.22,2.22,0,0,0,13.363-2.785Zm5.792.794.007-.958,4.655-4.2a2.967,2.967,0,0,0,.8-1.033,2.729,2.729,0,0,0,.2-1.026,2.242,2.242,0,0,0-.3-1.151,2.274,2.274,0,0,0-.808-.819,2.171,2.171,0,0,0-1.137-.3,2.2,2.2,0,0,0-1.173.315,2.312,2.312,0,0,0-.812.829,2.156,2.156,0,0,0-.29,1.123H19.219a3.218,3.218,0,0,1,.443-1.68,3.2,3.2,0,0,1,1.2-1.169A3.445,3.445,0,0,1,22.58-12.5a3.257,3.257,0,0,1,1.684.44,3.239,3.239,0,0,1,1.18,1.187,3.258,3.258,0,0,1,.433,1.662,3.79,3.79,0,0,1-.154,1.133,2.87,2.87,0,0,1-.479.908,6.517,6.517,0,0,1-.826.862L20.285-2.57,20.12-3h5.756v1.008Zm11.92.215a3.585,3.585,0,0,1-1.409-.272,3.161,3.161,0,0,1-1.108-.776,3.079,3.079,0,0,1-.679-1.2l1-.3a2.169,2.169,0,0,0,.847,1.158,2.268,2.268,0,0,0,1.334.379A2.389,2.389,0,0,0,32.244-3.1a1.949,1.949,0,0,0,.762-.815,2.638,2.638,0,0,0,.265-1.208,2.346,2.346,0,0,0-.611-1.691,2.127,2.127,0,0,0-1.612-.64,2.473,2.473,0,0,0-.586.075,2.6,2.6,0,0,0-.572.211L29.359-8l4-3.7.172.429H28.286V-12.28h5.949v1.023L30.746-7.926l-.014-.415a3.393,3.393,0,0,1,1.888.243A2.852,2.852,0,0,1,33.9-6.943a3.494,3.494,0,0,1,.461,1.82,3.483,3.483,0,0,1-.425,1.741A3.072,3.072,0,0,1,32.762-2.2,3.337,3.337,0,0,1,31.075-1.777Z" transform="translate(411.05 121.631)" fill="#fff"/>
      <path id="Path_3243" data-name="Path 3243" d="M1.19-1.943v-10.3H7.625v1.008H2.241v3.561H6.767v1.008H2.241v3.711H7.625v1.008Zm8.867,0v-10.3h1.051v4.862l4.7-4.862H17.15l-4.8,4.97,5.191,5.327H16.17L11.108-7.092v5.148Zm9.2,0v-10.3h7.887v10.3H26.095v-9.288H20.31v9.288Zm9.889,0,3.547-10.3h1.394l3.547,10.3H36.542l-3.368-9.71h.415l-3.346,9.71Zm1.58-2.5v-.987h5.32v.987Z" transform="translate(-1.19 121.591)" fill="#fff"/>
      <path id="Path_3245" data-name="Path 3245" d="M.85-1.991l.007-.958,4.655-4.2a2.967,2.967,0,0,0,.8-1.033,2.729,2.729,0,0,0,.2-1.026,2.242,2.242,0,0,0-.3-1.151,2.274,2.274,0,0,0-.808-.819,2.171,2.171,0,0,0-1.137-.3,2.2,2.2,0,0,0-1.173.315,2.312,2.312,0,0,0-.812.829,2.156,2.156,0,0,0-.29,1.123H.914a3.218,3.218,0,0,1,.443-1.68,3.2,3.2,0,0,1,1.2-1.169A3.445,3.445,0,0,1,4.275-12.5a3.257,3.257,0,0,1,1.684.44,3.239,3.239,0,0,1,1.18,1.187,3.258,3.258,0,0,1,.433,1.662,3.79,3.79,0,0,1-.154,1.133,2.87,2.87,0,0,1-.479.908,6.517,6.517,0,0,1-.826.862L1.98-2.57,1.815-3H7.571v1.008Zm12.513.222a3.341,3.341,0,0,1-1.713-.443,3.282,3.282,0,0,1-1.2-1.2A3.341,3.341,0,0,1,10-5.13v-4a3.341,3.341,0,0,1,.443-1.713,3.282,3.282,0,0,1,1.2-1.2,3.341,3.341,0,0,1,1.713-.443,3.341,3.341,0,0,1,1.713.443,3.282,3.282,0,0,1,1.2,1.2,3.341,3.341,0,0,1,.443,1.713v4a3.341,3.341,0,0,1-.443,1.713,3.282,3.282,0,0,1-1.2,1.2A3.341,3.341,0,0,1,13.363-1.769Zm0-1.015A2.22,2.22,0,0,0,14.522-3.1a2.334,2.334,0,0,0,.829-.833,2.227,2.227,0,0,0,.307-1.151v-4.1a2.24,2.24,0,0,0-.307-1.158,2.334,2.334,0,0,0-.829-.833,2.22,2.22,0,0,0-1.158-.311,2.22,2.22,0,0,0-1.158.311,2.334,2.334,0,0,0-.829.833,2.24,2.24,0,0,0-.307,1.158v4.1a2.227,2.227,0,0,0,.307,1.151A2.334,2.334,0,0,0,12.2-3.1,2.22,2.22,0,0,0,13.363-2.785Zm5.792.794.007-.958,4.655-4.2a2.967,2.967,0,0,0,.8-1.033,2.729,2.729,0,0,0,.2-1.026,2.242,2.242,0,0,0-.3-1.151,2.274,2.274,0,0,0-.808-.819,2.171,2.171,0,0,0-1.137-.3,2.2,2.2,0,0,0-1.173.315,2.312,2.312,0,0,0-.812.829,2.156,2.156,0,0,0-.29,1.123H19.219a3.218,3.218,0,0,1,.443-1.68,3.2,3.2,0,0,1,1.2-1.169A3.445,3.445,0,0,1,22.58-12.5a3.257,3.257,0,0,1,1.684.44,3.239,3.239,0,0,1,1.18,1.187,3.258,3.258,0,0,1,.433,1.662,3.79,3.79,0,0,1-.154,1.133,2.87,2.87,0,0,1-.479.908,6.517,6.517,0,0,1-.826.862L20.285-2.57,20.12-3h5.756v1.008Zm13.4.007V-3.979H27.736v-1l3.446-7.3h1.18l-3.446,7.3h3.64v-3h1.058v3h1.123v1H33.613v1.995Z" transform="translate(473.073 121.631)" fill="#fff"/>
      <rect id="Rectangle_127" data-name="Rectangle 127" width="508.902" height="2.191" transform="translate(0 25.263)" fill="#fff"/>
      <rect id="Rectangle_128" data-name="Rectangle 128" width="508.902" height="2.191" transform="translate(0 85.325)" fill="#fff"/>
      <line id="Line_93" data-name="Line 93" x2="20.501" transform="translate(449.341 114.384)" fill="none" stroke="#fff" stroke-width="1"/>
    </g>
  </g>
</svg>
