<svg xmlns="http://www.w3.org/2000/svg" xmlns:xlink="http://www.w3.org/1999/xlink" width="108.102" height="85.801" viewBox="0 0 108.102 85.801">
  <defs>
    <clipPath id="clip-path">
      <rect id="Rectangle_178" data-name="Rectangle 178" width="108.102" height="85.801" fill="none" stroke="rgba(0,0,0,0)" stroke-width="1"/>
    </clipPath>
  </defs>
  <g id="Group_197" data-name="Group 197" transform="translate(0 0)">
    <g id="Group_196" data-name="Group 196" transform="translate(0 0)" clip-path="url(#clip-path)">
      <path id="Path_3510" data-name="Path 3510" d="M84.053,63.445,59.034,15.279a2.978,2.978,0,0,0-4.017-1.27l-.1.052a2.98,2.98,0,0,0-1.27,4.017L78.665,66.244a2.98,2.98,0,0,0,4.017,1.27l.1-.052A2.979,2.979,0,0,0,84.053,63.445Z" transform="translate(-2.614 -0.671)" fill="none" stroke="#346de7" stroke-linecap="round" stroke-linejoin="round" stroke-width="2.589"/>
      <path id="Path_3511" data-name="Path 3511" d="M14.1,79.9,7.026,66.274a3.036,3.036,0,0,0-5.388,2.8L8.714,82.7A3.036,3.036,0,0,0,14.1,79.9Z" transform="translate(-0.063 -3.169)" fill="none" stroke="#346de7" stroke-linecap="round" stroke-linejoin="round" stroke-width="2.589"/>
      <line id="Line_62" data-name="Line 62" x1="44.187" y2="44.579" transform="translate(7.347 18.487)" fill="none" stroke="#346de7" stroke-linecap="round" stroke-linejoin="round" stroke-width="2.589"/>
      <path id="Path_3512" data-name="Path 3512" d="M14.631,79.013,32.646,75.72,55.2,71.6l20.621-3.768" transform="translate(-0.717 -3.326)" fill="none" stroke="#346de7" stroke-linecap="round" stroke-linejoin="round" stroke-width="2.589"/>
      <path id="Path_3513" data-name="Path 3513" d="M33.575,75.914,34.32,81.6a7.458,7.458,0,0,0,8.362,6.424L50.6,86.988a7.457,7.457,0,0,0,6.424-8.359l-.895-6.837Z" transform="translate(-1.646 -3.52)" fill="none" stroke="#346de7" stroke-linecap="round" stroke-linejoin="round" stroke-width="2.589"/>
      <line id="Line_63" data-name="Line 63" y1="13.954" x2="9.161" transform="translate(71.613 1.231)" fill="none" stroke="#346de7" stroke-linecap="round" stroke-linejoin="round" stroke-width="2.589"/>
      <line id="Line_64" data-name="Line 64" y1="8.948" x2="17.682" transform="translate(82.478 23.174)" fill="none" stroke="#346de7" stroke-linecap="round" stroke-linejoin="round" stroke-width="2.589"/>
      <line id="Line_65" data-name="Line 65" x2="16.724" y2="0.959" transform="translate(90.147 50.123)" fill="none" stroke="#346de7" stroke-linecap="round" stroke-linejoin="round" stroke-width="2.589"/>
    </g>
  </g>
</svg>
