<svg xmlns="http://www.w3.org/2000/svg" xmlns:xlink="http://www.w3.org/1999/xlink" width="79.633" height="94.354" viewBox="0 0 79.633 94.354">
  <defs>
    <clipPath id="clip-path">
      <rect id="Rectangle_179" data-name="Rectangle 179" width="79.633" height="94.354" fill="none"/>
    </clipPath>
  </defs>
  <g id="Group_199" data-name="Group 199" transform="translate(0 0)">
    <g id="Group_198" data-name="Group 198" transform="translate(0 0)" clip-path="url(#clip-path)">
      <path id="Path_3514" data-name="Path 3514" d="M35.631,81.134H6.273A5.023,5.023,0,0,1,1.25,76.111V6.273A5.023,5.023,0,0,1,6.273,1.25H59.205a5.023,5.023,0,0,1,5.023,5.023v46.4a5.026,5.026,0,0,1-1.482,3.563L39.173,79.673A5.024,5.024,0,0,1,35.631,81.134Z" transform="translate(-0.162 -0.162)" fill="none" stroke="#346de7" stroke-linecap="round" stroke-linejoin="round" stroke-width="2.5"/>
      <line id="Line_66" data-name="Line 66" x2="38.366" transform="translate(13.035 17.316)" fill="none" stroke="#346de7" stroke-linecap="round" stroke-linejoin="round" stroke-width="2.5"/>
      <line id="Line_67" data-name="Line 67" x2="38.366" transform="translate(13.035 28.709)" fill="none" stroke="#346de7" stroke-linecap="round" stroke-linejoin="round" stroke-width="2.5"/>
      <line id="Line_68" data-name="Line 68" x2="38.366" transform="translate(13.035 40.103)" fill="none" stroke="#346de7" stroke-linecap="round" stroke-linejoin="round" stroke-width="2.5"/>
      <line id="Line_69" data-name="Line 69" x2="22.773" transform="translate(13.035 51.496)" fill="none" stroke="#346de7" stroke-linecap="round" stroke-linejoin="round" stroke-width="2.5"/>
      <path id="Path_3515" data-name="Path 3515" d="M56.265,101.217l-6.958,1.565,1.254-7.269L72.476,73.6l5.7,5.7Z" transform="translate(-6.375 -9.516)" fill="none" stroke="#346de7" stroke-linecap="round" stroke-linejoin="round" stroke-width="2.5"/>
      <path id="Path_3516" data-name="Path 3516" d="M85.367,75.05l-5.7-5.7,2.92-2.92a1.9,1.9,0,0,1,2.69,0l3.012,3.012a1.9,1.9,0,0,1,0,2.69Z" transform="translate(-10.3 -8.516)" fill="none" stroke="#346de7" stroke-linecap="round" stroke-linejoin="round" stroke-width="2.5"/>
    </g>
  </g>
</svg>
