<svg xmlns="http://www.w3.org/2000/svg" xmlns:xlink="http://www.w3.org/1999/xlink" width="93.763" height="93.653" viewBox="0 0 93.763 93.653">
  <defs>
    <clipPath id="clip-path">
      <rect id="Rectangle_177" data-name="Rectangle 177" width="93.763" height="93.653" fill="none" stroke="#fff" stroke-width="0.9"/>
    </clipPath>
  </defs>
  <g id="Group_195" data-name="Group 195" transform="translate(0 0)">
    <g id="Group_194" data-name="Group 194" transform="translate(0 0)" clip-path="url(#clip-path)">
      <path id="Path_3508" data-name="Path 3508" d="M93.211,56.81c-.746-2.277-1.548-4.536-2.244-6.828a2.279,2.279,0,0,1,.147-1.554,5.052,5.052,0,0,0-1.891-6.854,1.472,1.472,0,0,1-.856-1.506c.025-7.429,0-14.857.027-22.285a2.234,2.234,0,0,0-1.4-2.346C75.958,10.491,64.941,5.5,53.891.586a2.938,2.938,0,0,0-2.138.033c-10.98,4.882-21.936,9.825-32.9,14.746-.8.359-1.518.774-1.525,1.781s.694,1.44,1.5,1.8c3.093,1.379,6.164,2.8,9.275,4.132a1.514,1.514,0,0,1,1.1,1.685c-.073,2.5-.025,5.006-.025,7.638.949,0,1.781-.025,2.607.007.616.026.8-.252.779-.822-.028-.684,0-1.371,0-2.055V25.144c.588.247.97.4,1.348.567C39.8,28.365,45.7,31,51.586,33.687a2.738,2.738,0,0,0,2.491.013c4.528-2.076,9.08-4.1,13.624-6.141,1.761-.79,3.524-1.575,5.443-2.436V44.15h3.381V42.87c0-6.1-.009-12.189.016-18.285,0-.394.14-1.021.4-1.145,2.6-1.241,5.235-2.4,8.039-3.653,0,7.055.01,13.871-.032,20.689a1.46,1.46,0,0,1-.7.959,5.157,5.157,0,0,0-2,7.025,2.262,2.262,0,0,1,.13,1.55c-.712,2.325-1.532,4.619-2.28,6.935-.494,1.522.2,2.491,1.791,2.5,3.163.02,6.325.015,9.485,0,1.71-.007,2.381-.975,1.837-2.637M75.535,20.325c-7.145,3.216-14.3,6.417-21.426,9.663a2.637,2.637,0,0,1-2.449.025c-9.1-4.141-18.233-8.225-27.355-12.329-.3-.135-.582-.3-1.02-.522.473-.24.789-.419,1.119-.568Q38.087,10.437,51.761,4.268A2.4,2.4,0,0,1,54,4.292c3.31,1.536,6.648,3.007,10.256,4.628l-7.87,4.514c-2.415-1.616-4.551-1.751-6.432-.451A5.076,5.076,0,0,0,53.511,22.2a4.8,4.8,0,0,0,4.272-4.247,2.729,2.729,0,0,1,1.735-2.44c2.644-1.426,5.221-2.976,7.852-4.434a1.626,1.626,0,0,1,1.243-.163c4.555,2.008,9.088,4.066,13.922,6.245-2.518,1.137-4.759,2.154-7,3.165m-21-3.076a1.7,1.7,0,0,1-1.758,1.572,1.662,1.662,0,1,1,.174-3.317,1.7,1.7,0,0,1,1.584,1.745M83.99,56c.6-1.824,1.124-3.59,1.756-5.313.514-1.405.97-2.664-.456-3.907-.661-.58-.4-1.525.28-2.122a1.541,1.541,0,0,1,2.177-.021,1.422,1.422,0,0,1,.265,2.209c-1.27,1.135-.979,2.285-.5,3.6.654,1.809,1.226,3.649,1.86,5.556ZM63.045,36.789a3.271,3.271,0,0,0-2.52-1.049q-28.853.027-57.7.016C.9,35.756.4,36.262.4,38.2V90.87c0,1.923.5,2.415,2.438,2.415H38.486q17.824,0,35.65,0c1.865,0,2.387-.513,2.387-2.351q0-19.65.018-39.3a3.02,3.02,0,0,0-.975-2.317q-6.29-6.231-12.521-12.525m.034,5.173q3.626,3.621,7.275,7.268H63.08Zm9.983,47.862H3.863V39.217H59.61v10.6c0,2.557.3,2.85,2.9,2.85H73.062ZM57.886,50.946H46.171V47.567h9.994V44.211H9.659c-2.023,0-2.475.458-2.475,2.5q0,17.831,0,35.661c0,2.015.453,2.456,2.5,2.456H67.18c2.114,0,2.561-.435,2.564-2.513V56.136H66.37v4.9H57.886Zm8.433,30.44h-8.3V74.8h8.3ZM58.012,64.58h8.3v6.661h-8.3Zm-3.544-3.559H34.294V54.449H54.468ZM42.632,71.251H34.315V64.59h8.317ZM34.29,47.666h8.3v3.262h-8.3Zm-11.841.016H30.8v3.232h-8.35Zm8.307,13.386h-8.3V54.492h8.3Zm-8.312,3.509H30.79v6.65H22.444ZM10.618,47.661h8.314v3.271H10.618Zm-.011,6.776h8.3v6.59h-8.3Zm8.312,16.81H10.613V64.575h8.305Zm.023,10.079H10.61V74.78h8.332Zm23.695.023h-20.2V74.778h20.2Zm11.825.015H46.152V74.759h8.309Zm.023-10.12H46.177V64.591h8.307Z" transform="translate(-0.017 -0.017)" fill="#346de7" stroke="#fff" stroke-width="0.9"/>
      <path id="Path_3509" data-name="Path 3509" d="M93.211,56.81c-.746-2.277-1.548-4.536-2.244-6.828a2.279,2.279,0,0,1,.147-1.554,5.052,5.052,0,0,0-1.891-6.854,1.472,1.472,0,0,1-.856-1.506c.025-7.429,0-14.857.027-22.285a2.234,2.234,0,0,0-1.4-2.346C75.958,10.491,64.941,5.5,53.891.586a2.938,2.938,0,0,0-2.138.033c-10.98,4.882-21.936,9.825-32.9,14.746-.8.359-1.518.774-1.525,1.781s.694,1.44,1.5,1.8c3.093,1.379,6.164,2.8,9.275,4.132a1.514,1.514,0,0,1,1.1,1.685c-.073,2.5-.025,5.006-.025,7.638.949,0,1.781-.025,2.607.007.616.026.8-.252.779-.822-.028-.684,0-1.371,0-2.055V25.144c.588.247.97.4,1.348.567C39.8,28.365,45.7,31,51.586,33.687a2.738,2.738,0,0,0,2.491.013c4.528-2.076,9.08-4.1,13.624-6.141,1.761-.79,3.524-1.575,5.443-2.436V44.15h3.381V42.87c0-6.1-.009-12.189.016-18.285,0-.394.14-1.021.4-1.145,2.6-1.241,5.235-2.4,8.039-3.653,0,7.055.01,13.871-.032,20.689a1.46,1.46,0,0,1-.7.959,5.157,5.157,0,0,0-2,7.025,2.262,2.262,0,0,1,.13,1.55c-.712,2.325-1.532,4.619-2.28,6.935-.494,1.522.2,2.491,1.791,2.5,3.163.02,6.325.015,9.485,0C93.085,59.441,93.756,58.473,93.211,56.81ZM75.535,20.325c-7.145,3.216-14.3,6.417-21.426,9.663a2.637,2.637,0,0,1-2.449.025c-9.1-4.141-18.233-8.225-27.355-12.329-.3-.135-.582-.3-1.02-.522.473-.24.789-.419,1.119-.568Q38.087,10.437,51.761,4.268A2.4,2.4,0,0,1,54,4.292c3.31,1.536,6.648,3.007,10.256,4.628l-7.87,4.514c-2.415-1.616-4.551-1.751-6.432-.451A5.076,5.076,0,0,0,53.511,22.2a4.8,4.8,0,0,0,4.272-4.247,2.729,2.729,0,0,1,1.735-2.44c2.644-1.426,5.221-2.976,7.852-4.434a1.626,1.626,0,0,1,1.243-.163c4.555,2.008,9.088,4.066,13.922,6.245C80.017,18.3,77.776,19.313,75.535,20.325Zm-21-3.076a1.7,1.7,0,0,1-1.758,1.572,1.662,1.662,0,1,1,.174-3.317A1.7,1.7,0,0,1,54.539,17.249ZM83.99,56c.6-1.824,1.124-3.59,1.756-5.313.514-1.405.97-2.664-.456-3.907-.661-.58-.4-1.525.28-2.122a1.541,1.541,0,0,1,2.177-.021,1.422,1.422,0,0,1,.265,2.209c-1.27,1.135-.979,2.285-.5,3.6.654,1.809,1.226,3.649,1.86,5.556ZM63.045,36.789a3.271,3.271,0,0,0-2.52-1.049q-28.853.027-57.7.016C.9,35.756.4,36.262.4,38.2V90.87c0,1.923.5,2.415,2.438,2.415H38.486q17.824,0,35.65,0c1.865,0,2.387-.513,2.387-2.351q0-19.65.018-39.3a3.02,3.02,0,0,0-.975-2.317Q69.277,43.083,63.045,36.789Zm.034,5.173q3.626,3.621,7.275,7.268H63.08Zm9.983,47.862H3.863V39.217H59.61v10.6c0,2.557.3,2.85,2.9,2.85H73.062ZM57.886,50.946H46.171V47.567h9.994V44.211H9.659c-2.023,0-2.475.458-2.475,2.5q0,17.831,0,35.661c0,2.015.453,2.456,2.5,2.456H67.18c2.114,0,2.561-.435,2.564-2.513V56.136H66.37v4.9H57.886Zm8.433,30.44h-8.3V74.8h8.3ZM58.012,64.58h8.3v6.661h-8.3Zm-3.544-3.559H34.294V54.449H54.468ZM42.632,71.251H34.315V64.59h8.317ZM34.29,47.666h8.3v3.262h-8.3Zm-11.841.016H30.8v3.232h-8.35Zm8.307,13.386h-8.3V54.492h8.3Zm-8.312,3.509H30.79v6.65H22.444ZM10.618,47.661h8.314v3.271H10.618Zm-.011,6.776h8.3v6.59h-8.3Zm8.312,16.81H10.613V64.575h8.305Zm.023,10.079H10.61V74.78h8.332Zm23.695.023h-20.2V74.778h20.2Zm11.825.015H46.152V74.759h8.309Zm.023-10.12H46.177V64.591h8.307Z" transform="translate(-0.017 -0.017)" fill="none" stroke="#fff" stroke-miterlimit="10" stroke-width="0.9"/>
    </g>
  </g>
</svg>
