<svg xmlns="http://www.w3.org/2000/svg" xmlns:xlink="http://www.w3.org/1999/xlink" width="990" height="323" viewBox="0 0 990 323">
  <defs>
    <filter id="Rectangle_84" x="0" y="0" width="990" height="323" filterUnits="userSpaceOnUse">
      <feOffset dy="10" input="SourceAlpha"/>
      <feGaussianBlur stdDeviation="15" result="blur"/>
      <feFlood flood-opacity="0.302"/>
      <feComposite operator="in" in2="blur"/>
      <feComposite in="SourceGraphic"/>
    </filter>
  </defs>
  <g id="Group_228" data-name="Group 228" transform="translate(-550.675 -2316.75)">
    <g transform="matrix(1, 0, 0, 1, 550.67, 2316.75)" filter="url(#Rectangle_84)">
      <rect id="Rectangle_84-2" data-name="Rectangle 84" width="900" height="233" transform="translate(45 35)" fill="#346de7"/>
    </g>
    <g id="Group_141" data-name="Group 141" transform="translate(723.02 2393.749)">
      <path id="Path_3242" data-name="Path 3242" d="M4.489,2V-3.013H22.448V2ZM9.423-26.418h8.012L26.118,2H20.593L13.37-21.366,6.266,2H.74ZM34.979,2.157a10.037,10.037,0,0,1-2.269-.74A5.093,5.093,0,0,1,30.637-.527a5.53,5.53,0,0,1-.918-2.881q-.03-1.48-.03-3.631V-19.314h5.368V-7.355q0,1.3.03,2.25a3.254,3.254,0,0,0,.4,1.579,2.315,2.315,0,0,0,1.016.888,3.972,3.972,0,0,0,1.233.335,13.143,13.143,0,0,0,1.7.01q.928-.049,1.776-.168V2a9.74,9.74,0,0,1-1.993.316,20.842,20.842,0,0,1-2.309.03A15.283,15.283,0,0,1,34.979,2.157Zm18.984.434a10.849,10.849,0,0,1-5.644-1.441A10,10,0,0,1,44.54-2.826a12.208,12.208,0,0,1-1.352-5.831,12.079,12.079,0,0,1,1.381-5.871,10.068,10.068,0,0,1,3.809-3.957,10.849,10.849,0,0,1,5.585-1.421,10.9,10.9,0,0,1,5.654,1.441,10.048,10.048,0,0,1,3.8,3.976,12.135,12.135,0,0,1,1.362,5.831,12.107,12.107,0,0,1-1.372,5.851A10.047,10.047,0,0,1,59.6,1.161,10.921,10.921,0,0,1,53.963,2.591Zm0-5.012a4.46,4.46,0,0,0,3.858-1.746,7.433,7.433,0,0,0,1.273-4.49A7.306,7.306,0,0,0,57.8-13.2a4.523,4.523,0,0,0-3.838-1.7,4.9,4.9,0,0,0-2.881.789,4.647,4.647,0,0,0-1.668,2.19,8.983,8.983,0,0,0-.543,3.256,7.3,7.3,0,0,0,1.293,4.549A4.49,4.49,0,0,0,53.963-2.421ZM73.855-22.274H69.869l3.276-7.7h3.986Zm.572,24.431a10.037,10.037,0,0,1-2.269-.74A5.093,5.093,0,0,1,70.086-.527a5.53,5.53,0,0,1-.918-2.881q-.03-1.48-.03-3.631V-19.314h5.368V-7.355q0,1.3.03,2.25a3.254,3.254,0,0,0,.4,1.579,2.315,2.315,0,0,0,1.016.888A3.972,3.972,0,0,0,77.19-2.3a13.143,13.143,0,0,0,1.7.01q.927-.049,1.776-.168V2a9.739,9.739,0,0,1-1.993.316,20.842,20.842,0,0,1-2.309.03A15.283,15.283,0,0,1,74.427,2.157ZM84.965,2,85-19.314h5.447V-9.052l7.223-10.262H104.3l-7.7,10.656L104.818,2H97.832L90.451-8.262V2Zm35.956,0V-8.065q0-.73-.079-1.865a8.385,8.385,0,0,0-.493-2.279A4.348,4.348,0,0,0,119-14.124a4.078,4.078,0,0,0-2.654-.77,5.6,5.6,0,0,0-1.48.217,3.658,3.658,0,0,0-1.48.839,4.5,4.5,0,0,0-1.135,1.825,9.449,9.449,0,0,0-.444,3.2l-3.079-1.46a11.109,11.109,0,0,1,1.026-4.736,8.495,8.495,0,0,1,3.088-3.572,9.25,9.25,0,0,1,5.2-1.362,8.6,8.6,0,0,1,4.085.849,6.732,6.732,0,0,1,2.457,2.151,8.951,8.951,0,0,1,1.253,2.713,13.735,13.735,0,0,1,.454,2.575q.079,1.164.079,1.7V2ZM106.357,2V-19.314h4.776v7.065h.671V2Zm33.943.592a10.679,10.679,0,0,1-5.644-1.47,10.3,10.3,0,0,1-3.779-3.957,11.419,11.419,0,0,1-1.352-5.545,11.6,11.6,0,0,1,.967-4.776,10.274,10.274,0,0,1,2.733-3.68,10.183,10.183,0,0,1,4.154-2.121,12.072,12.072,0,0,1,2.585-.316q1.48-.039,3.493-.039H152.3v4.736h-5.131L148.312-16a11.9,11.9,0,0,1,1.993,3.345,11.2,11.2,0,0,1,.809,4.272,11.328,11.328,0,0,1-1.372,5.565,10.352,10.352,0,0,1-3.809,3.947A10.748,10.748,0,0,1,140.3,2.591Zm0-5.012a4.481,4.481,0,0,0,3.858-1.727,6.937,6.937,0,0,0,1.273-4.233,6.788,6.788,0,0,0-1.293-4.2A4.5,4.5,0,0,0,140.3-14.3a4.773,4.773,0,0,0-2.881.819,4.871,4.871,0,0,0-1.668,2.161,7.772,7.772,0,0,0-.543,2.94A6.8,6.8,0,0,0,136.5-4.089,4.513,4.513,0,0,0,140.3-2.421ZM170.374,2V-8.065q0-.73-.079-1.865a8.384,8.384,0,0,0-.493-2.279,4.347,4.347,0,0,0-1.352-1.914,4.078,4.078,0,0,0-2.654-.77,5.6,5.6,0,0,0-1.48.217,3.658,3.658,0,0,0-1.48.839,4.5,4.5,0,0,0-1.135,1.825,9.45,9.45,0,0,0-.444,3.2l-3.079-1.46a11.109,11.109,0,0,1,1.026-4.736,8.495,8.495,0,0,1,3.088-3.572,9.25,9.25,0,0,1,5.2-1.362,8.6,8.6,0,0,1,4.085.849,6.733,6.733,0,0,1,2.457,2.151,8.951,8.951,0,0,1,1.253,2.713,13.733,13.733,0,0,1,.454,2.575q.079,1.164.079,1.7V2ZM155.811,2V-19.314h4.776v7.065h.671V2Zm41.836.592A10.679,10.679,0,0,1,192,1.121a10.3,10.3,0,0,1-3.779-3.957,11.419,11.419,0,0,1-1.352-5.545,11.6,11.6,0,0,1,.967-4.776,10.274,10.274,0,0,1,2.733-3.68,10.183,10.183,0,0,1,4.154-2.121,12.072,12.072,0,0,1,2.585-.316q1.48-.039,3.493-.039h8.841v4.736h-5.131L205.659-16a11.9,11.9,0,0,1,1.993,3.345,11.2,11.2,0,0,1,.809,4.272,11.328,11.328,0,0,1-1.372,5.565,10.352,10.352,0,0,1-3.809,3.947A10.748,10.748,0,0,1,197.647,2.591Zm0-5.012a4.481,4.481,0,0,0,3.858-1.727,6.937,6.937,0,0,0,1.273-4.233,6.787,6.787,0,0,0-1.293-4.2,4.5,4.5,0,0,0-3.838-1.717,4.773,4.773,0,0,0-2.881.819,4.871,4.871,0,0,0-1.668,2.161,7.771,7.771,0,0,0-.543,2.94,6.8,6.8,0,0,0,1.293,4.292A4.513,4.513,0,0,0,197.647-2.421Zm23.207,5.012a11.9,11.9,0,0,1-4.381-.789,7.49,7.49,0,0,1-3.236-2.348,6.041,6.041,0,0,1-1.224-3.848,6.582,6.582,0,0,1,.385-2.289A5.63,5.63,0,0,1,213.5-8.529a6,6,0,0,1,1.707-1.312l-.039,1.7a8.347,8.347,0,0,1-1.885-2.625,6.846,6.846,0,0,1-.562-2.7,5.584,5.584,0,0,1,1.135-3.582,6.873,6.873,0,0,1,2.96-2.141,10.6,10.6,0,0,1,3.878-.71,12.122,12.122,0,0,1,4.657.918,15.062,15.062,0,0,1,4.026,2.437l-2.96,3.671a14.321,14.321,0,0,0-2.625-1.441,7.276,7.276,0,0,0-2.861-.612,3.905,3.905,0,0,0-1.875.434,1.594,1.594,0,0,0-.809,1.539,1.464,1.464,0,0,0,1.164,1.608,11.991,11.991,0,0,0,2.822.286H223.5v4.184h-1.263q-1.105,0-2.2.02a3.9,3.9,0,0,0-1.816.414,1.554,1.554,0,0,0-.72,1.5,2.2,2.2,0,0,0,.9,1.835,4.008,4.008,0,0,0,2.5.691,6.2,6.2,0,0,0,2.832-.651,9.2,9.2,0,0,0,2.417-1.8l4.223,2.842a9.849,9.849,0,0,1-3.976,3.384A12.485,12.485,0,0,1,220.854,2.591ZM241.023,2V-26.418h5.447L258.823-7.473V-26.418h5.447V2h-5.447L246.469-16.945V2Zm37.14.592a9.319,9.319,0,0,1-5.259-1.48,9.8,9.8,0,0,1-3.463-4.026,13.091,13.091,0,0,1-1.224-5.743,12.905,12.905,0,0,1,1.253-5.792,9.811,9.811,0,0,1,3.523-4,9.629,9.629,0,0,1,5.328-1.46,9.136,9.136,0,0,1,3.809.76,8.258,8.258,0,0,1,2.861,2.121l-.789.987v-3.276h4.736V2H284.2V-1.316l.789.987a8.291,8.291,0,0,1-2.94,2.141A9.478,9.478,0,0,1,278.162,2.591Zm.868-4.776a4.436,4.436,0,0,0,2.773-.809,4.522,4.522,0,0,0,1.529-2.269,11.016,11.016,0,0,0,.474-3.394,11.016,11.016,0,0,0-.474-3.394,4.577,4.577,0,0,0-1.51-2.269,4.283,4.283,0,0,0-2.713-.809,4.884,4.884,0,0,0-2.783.779,5,5,0,0,0-1.8,2.24,8.766,8.766,0,0,0-.631,3.493,9.482,9.482,0,0,0,.523,3.217,5.018,5.018,0,0,0,1.658,2.338A4.684,4.684,0,0,0,279.03-2.184Zm14.643-5.565V-19.314h5.447V-9.249q0,.73.079,1.865a8.384,8.384,0,0,0,.493,2.279,4.347,4.347,0,0,0,1.352,1.914,4.078,4.078,0,0,0,2.654.77,4.078,4.078,0,0,0,2.654-.77A4.348,4.348,0,0,0,307.7-5.105a8.384,8.384,0,0,0,.493-2.279q.079-1.135.079-1.865V-19.314h5.447V-7.749q0,1.046-.109,2.408a11.6,11.6,0,0,1-.572,2.753,7.272,7.272,0,0,1-1.529,2.575,7.557,7.557,0,0,1-2.95,1.914,13.654,13.654,0,0,1-4.864.73,13.654,13.654,0,0,1-4.865-.73,7.557,7.557,0,0,1-2.95-1.914,7.27,7.27,0,0,1-1.529-2.575,11.607,11.607,0,0,1-.572-2.753Q293.673-6.7,293.673-7.749Zm35.285,9.907a10.037,10.037,0,0,1-2.269-.74,5.093,5.093,0,0,1-2.072-1.944,5.531,5.531,0,0,1-.918-2.881q-.03-1.48-.03-3.631v-7.538h-6.986v-4.736h19.339v4.736h-6.986v7.223q0,1.3.03,2.25a3.254,3.254,0,0,0,.4,1.579,2.315,2.315,0,0,0,1.016.888,3.971,3.971,0,0,0,1.233.335,13.143,13.143,0,0,0,1.7.01q.927-.049,1.776-.168V2a9.74,9.74,0,0,1-1.993.316,20.841,20.841,0,0,1-2.309.03A15.283,15.283,0,0,1,328.958,2.157Zm17.109,0a10.038,10.038,0,0,1-2.269-.74,5.093,5.093,0,0,1-2.072-1.944,5.531,5.531,0,0,1-.918-2.881q-.03-1.48-.03-3.631V-19.314h5.368V-7.355q0,1.3.03,2.25a3.253,3.253,0,0,0,.4,1.579,2.315,2.315,0,0,0,1.016.888,3.973,3.973,0,0,0,1.233.335,13.143,13.143,0,0,0,1.7.01q.928-.049,1.776-.168V2a9.739,9.739,0,0,1-1.993.316,20.843,20.843,0,0,1-2.309.03A15.285,15.285,0,0,1,346.067,2.157ZM355.461,2,363.2-19.314a6.412,6.412,0,0,0-1.026-1.766,3.187,3.187,0,0,0-1.431-.947,6.932,6.932,0,0,0-2.161-.286h-1.026v-4.7h1.539q.335,0,1.4.039a10.765,10.765,0,0,1,2.072.276,5.818,5.818,0,0,1,2.852,1.51,9.236,9.236,0,0,1,1.815,2.625q.72,1.529,1.332,3.246L376.3,2h-5.368L365.88-12.762,360.828,2Zm29.128-24.273H380.6l3.276-7.7h3.986Zm.572,24.431a10.038,10.038,0,0,1-2.269-.74,5.093,5.093,0,0,1-2.072-1.944,5.531,5.531,0,0,1-.918-2.881q-.03-1.48-.03-3.631V-19.314h5.368V-7.355q0,1.3.03,2.25a3.254,3.254,0,0,0,.4,1.579,2.315,2.315,0,0,0,1.016.888,3.972,3.972,0,0,0,1.233.335,13.144,13.144,0,0,0,1.7.01q.928-.049,1.776-.168V2a9.74,9.74,0,0,1-1.993.316,20.842,20.842,0,0,1-2.309.03A15.284,15.284,0,0,1,385.161,2.157Zm18.155.434a9.319,9.319,0,0,1-5.259-1.48,9.8,9.8,0,0,1-3.463-4.026,13.091,13.091,0,0,1-1.224-5.743,12.905,12.905,0,0,1,1.253-5.792,9.811,9.811,0,0,1,3.523-4,9.63,9.63,0,0,1,5.328-1.46,9.135,9.135,0,0,1,3.809.76,8.259,8.259,0,0,1,2.861,2.121l-.789.987v-3.276h4.736V2h-4.736V-1.316l.789.987a8.292,8.292,0,0,1-2.94,2.141A9.478,9.478,0,0,1,403.316,2.591Zm.868-4.776a4.436,4.436,0,0,0,2.773-.809,4.522,4.522,0,0,0,1.529-2.269,11.016,11.016,0,0,0,.474-3.394,11.016,11.016,0,0,0-.474-3.394,4.577,4.577,0,0,0-1.51-2.269,4.283,4.283,0,0,0-2.713-.809,4.884,4.884,0,0,0-2.783.779,5,5,0,0,0-1.8,2.24,8.767,8.767,0,0,0-.631,3.493,9.482,9.482,0,0,0,.523,3.217,5.018,5.018,0,0,0,1.658,2.338A4.684,4.684,0,0,0,404.184-2.184ZM426.681,2l.039-21.313h5.447V-9.052l7.223-10.262h6.631l-7.7,10.656L446.534,2h-6.986L432.167-8.262V2Zm29.8.592a9.319,9.319,0,0,1-5.259-1.48,9.8,9.8,0,0,1-3.463-4.026,13.09,13.09,0,0,1-1.224-5.743,12.905,12.905,0,0,1,1.253-5.792,9.812,9.812,0,0,1,3.523-4,9.629,9.629,0,0,1,5.328-1.46,9.135,9.135,0,0,1,3.809.76,8.259,8.259,0,0,1,2.861,2.121l-.789.987v-3.276h4.736V2h-4.736V-1.316l.789.987a8.292,8.292,0,0,1-2.94,2.141A9.478,9.478,0,0,1,456.48,2.591Zm.868-4.776a4.436,4.436,0,0,0,2.773-.809,4.522,4.522,0,0,0,1.529-2.269,11.017,11.017,0,0,0,.474-3.394,11.017,11.017,0,0,0-.474-3.394,4.577,4.577,0,0,0-1.51-2.269,4.284,4.284,0,0,0-2.713-.809,4.884,4.884,0,0,0-2.782.779,5,5,0,0,0-1.8,2.24,8.767,8.767,0,0,0-.631,3.493A9.482,9.482,0,0,0,452.74-5.4,5.018,5.018,0,0,0,454.4-3.063,4.684,4.684,0,0,0,457.348-2.184Zm20.741,4.342a10.036,10.036,0,0,1-2.269-.74,5.092,5.092,0,0,1-2.072-1.944,5.53,5.53,0,0,1-.918-2.881q-.03-1.48-.03-3.631V-19.314h5.368V-7.355q0,1.3.03,2.25a3.254,3.254,0,0,0,.4,1.579,2.315,2.315,0,0,0,1.016.888,3.972,3.972,0,0,0,1.233.335,13.143,13.143,0,0,0,1.7.01q.927-.049,1.776-.168V2a9.74,9.74,0,0,1-1.993.316,20.841,20.841,0,0,1-2.309.03A15.283,15.283,0,0,1,478.089,2.157Zm24.194-28.575h8.012L518.978,2h-5.526l-7.223-23.365L499.125,2H493.6ZM527.246,2.157a10.038,10.038,0,0,1-2.269-.74A5.093,5.093,0,0,1,522.9-.527a5.531,5.531,0,0,1-.918-2.881q-.03-1.48-.03-3.631V-19.314h5.368V-7.355q0,1.3.03,2.25a3.254,3.254,0,0,0,.4,1.579,2.315,2.315,0,0,0,1.016.888,3.972,3.972,0,0,0,1.233.335,13.143,13.143,0,0,0,1.7.01q.928-.049,1.776-.168V2a9.74,9.74,0,0,1-1.993.316,20.841,20.841,0,0,1-2.309.03A15.286,15.286,0,0,1,527.246,2.157Zm10.538,9.315V-19.314h5.447V-9.249q0,.73.079,1.865a8.381,8.381,0,0,0,.493,2.279,4.348,4.348,0,0,0,1.352,1.914,4.078,4.078,0,0,0,2.654.77,5.6,5.6,0,0,0,1.48-.217,3.659,3.659,0,0,0,1.48-.839A4.5,4.5,0,0,0,551.9-5.312a9.464,9.464,0,0,0,.444-3.187V-19.314h5.407V2h-4.736V-.211a8.2,8.2,0,0,1-2.871,2.072,9.838,9.838,0,0,1-4.036.77,10.549,10.549,0,0,1-1.954-.168A9.008,9.008,0,0,1,542.52,2v9.472Zm33.943-33.745h-3.986l3.276-7.7H575ZM570.543,2.591a11.9,11.9,0,0,1-4.381-.789,7.489,7.489,0,0,1-3.236-2.348A6.041,6.041,0,0,1,561.7-4.395a6.581,6.581,0,0,1,.385-2.289,5.63,5.63,0,0,1,1.105-1.845A6,6,0,0,1,564.9-9.841l-.039,1.7a8.346,8.346,0,0,1-1.885-2.625,6.845,6.845,0,0,1-.562-2.7,5.584,5.584,0,0,1,1.135-3.582,6.873,6.873,0,0,1,2.96-2.141,10.6,10.6,0,0,1,3.878-.71,12.122,12.122,0,0,1,4.657.918,15.064,15.064,0,0,1,4.026,2.437l-2.96,3.671a14.32,14.32,0,0,0-2.625-1.441,7.276,7.276,0,0,0-2.861-.612,3.905,3.905,0,0,0-1.875.434,1.594,1.594,0,0,0-.809,1.539,1.464,1.464,0,0,0,1.164,1.608,11.99,11.99,0,0,0,2.822.286h1.263v4.184h-1.263q-1.105,0-2.2.02a3.9,3.9,0,0,0-1.816.414,1.554,1.554,0,0,0-.72,1.5,2.2,2.2,0,0,0,.9,1.835,4.008,4.008,0,0,0,2.5.691,6.2,6.2,0,0,0,2.832-.651,9.2,9.2,0,0,0,2.417-1.8l4.223,2.842a9.848,9.848,0,0,1-3.976,3.384A12.485,12.485,0,0,1,570.543,2.591ZM588.58,2l-7.736-21.313h5.368l5.052,14.761,5.052-14.761h5.368L593.948,2Zm23.918.592a11.9,11.9,0,0,1-4.381-.789A7.49,7.49,0,0,1,604.88-.546a6.041,6.041,0,0,1-1.224-3.848,6.581,6.581,0,0,1,.385-2.289,5.628,5.628,0,0,1,1.105-1.845,6,6,0,0,1,1.707-1.312l-.039,1.7a8.346,8.346,0,0,1-1.885-2.625,6.846,6.846,0,0,1-.562-2.7,5.585,5.585,0,0,1,1.135-3.582,6.873,6.873,0,0,1,2.96-2.141,10.6,10.6,0,0,1,3.878-.71,12.122,12.122,0,0,1,4.657.918,15.063,15.063,0,0,1,4.026,2.437l-2.96,3.671a14.316,14.316,0,0,0-2.625-1.441,7.275,7.275,0,0,0-2.861-.612,3.906,3.906,0,0,0-1.875.434,1.594,1.594,0,0,0-.809,1.539,1.464,1.464,0,0,0,1.164,1.608,11.99,11.99,0,0,0,2.822.286h1.263v4.184h-1.263q-1.105,0-2.2.02a3.9,3.9,0,0,0-1.815.414,1.554,1.554,0,0,0-.72,1.5,2.2,2.2,0,0,0,.9,1.835,4.008,4.008,0,0,0,2.5.691,6.2,6.2,0,0,0,2.832-.651,9.2,9.2,0,0,0,2.417-1.8l4.223,2.842a9.85,9.85,0,0,1-3.976,3.384A12.485,12.485,0,0,1,612.5,2.591Zm26.759,4.144a5.2,5.2,0,0,0-.8-3.276,3.393,3.393,0,0,0-2.171-1.184A25.622,25.622,0,0,0,633.179,2a11.057,11.057,0,0,1-2.812-.434A9.223,9.223,0,0,1,627.851.4a7.881,7.881,0,0,1-2.033-1.964,9.154,9.154,0,0,1-1.352-2.861,13.813,13.813,0,0,1-.483-3.838A13.544,13.544,0,0,1,625.3-14.41a9.7,9.7,0,0,1,3.7-4.055,10.717,10.717,0,0,1,5.644-1.441,10.288,10.288,0,0,1,6.325,1.9,8.474,8.474,0,0,1,3.266,5.2l-5.368,1.421a5.115,5.115,0,0,0-1.628-2.585,4.328,4.328,0,0,0-2.832-.928,3.758,3.758,0,0,0-2.546.819,4.625,4.625,0,0,0-1.372,2.26,11.6,11.6,0,0,0-.424,3.276,10.488,10.488,0,0,0,.227,2.279,4.146,4.146,0,0,0,.8,1.727,3.628,3.628,0,0,0,1.608,1.1,8.321,8.321,0,0,0,2.654.424q.474,0,1.352.02t1.875.138a7.649,7.649,0,0,1,1.825.434,5.092,5.092,0,0,1,2.408,1.865A7.351,7.351,0,0,1,644,2.6a13.16,13.16,0,0,1-.089,4.134Z" transform="translate(-0.001 81.874)" fill="#fff"/>
      <path id="Path_3241" data-name="Path 3241" d="M1.26.883V-12.942H9.9v1.354H2.671v4.781H8.748v1.354H2.671V-.471H9.9V.883Zm11.9,0V-12.942h1.421L22.2-1.614V-12.942h1.421V.883H22.2L14.585-10.455V.883Zm17.78,0V-11.588H26.115v-1.354H37.185v1.354H32.356V.883Zm7.392,0L43.1-12.942h1.872L49.732.883H48.263L43.742-12.155H44.3L39.806.883Zm2.122-3.351V-3.793H47.6v1.325ZM54.945.883V-11.588H50.116v-1.354H61.186v1.354H56.357V.883Zm8.928,0V-12.942h1.411V.883Zm5.251,0V-12.942h1.411v6.528l6.307-6.528h1.8L72.207-6.27,79.177.883H77.333l-6.8-6.912V.883Zm17.309.288A6.3,6.3,0,0,1,82.95.254,5.751,5.751,0,0,1,80.8-2.286a9.047,9.047,0,0,1-.73-3.744,9.047,9.047,0,0,1,.73-3.744,5.751,5.751,0,0,1,2.15-2.539,6.3,6.3,0,0,1,3.485-.917,6.29,6.29,0,0,1,3.49.917,5.792,5.792,0,0,1,2.15,2.539,9,9,0,0,1,.734,3.744,9,9,0,0,1-.734,3.744A5.792,5.792,0,0,1,89.924.254,6.29,6.29,0,0,1,86.435,1.171Zm0-1.354a4.7,4.7,0,0,0,2.707-.739,4.48,4.48,0,0,0,1.627-2.059,7.972,7.972,0,0,0,.542-3.048,7.935,7.935,0,0,0-.542-3.043,4.483,4.483,0,0,0-1.627-2.054,4.751,4.751,0,0,0-2.707-.749,4.654,4.654,0,0,0-2.7.739,4.5,4.5,0,0,0-1.618,2.059,8.092,8.092,0,0,0-.552,3.048A7.783,7.783,0,0,0,82.1-2.991,4.516,4.516,0,0,0,83.727-.937,4.728,4.728,0,0,0,86.435-.183ZM100.586.883V-.471h9.3V.883Zm3.706-13.825h1.872L110.925.883h-1.469l-4.243-12.221L101,.883H99.529ZM113.805.883V-12.942h1.411V.883Zm4.291,0,4.762-13.825h1.872L129.492.883h-1.469L123.5-12.155h.557L119.565.883Zm2.122-3.351V-3.793h7.143v1.325ZM134.705.883V-11.588h-4.829v-1.354h11.069v1.354h-4.829V.883Zm8.736,0V-12.942h1.3l5.434,11.626,5.405-11.626h1.315V.873h-1.344V-9.793L150.623.883h-.912L144.8-9.793V.883Zm17.1,0V-12.942h1.411v6.231h7.642v-6.231h1.4V.883h-1.4v-6.24h-7.642V.883Zm14.1,0V-12.942h1.3l5.434,11.626,5.4-11.626h1.315V.873h-1.344V-9.793L181.824.883h-.912L176-9.793V.883Zm16.138,0,4.762-13.825h1.872L202.177.883h-1.469l-4.522-13.037h.557L192.25.883ZM192.9-2.468V-3.793h7.143v1.325ZM207.39.883V-11.588h-4.829v-1.354H213.63v1.354H208.8V.883Zm8.928,0V-12.942h1.411V.883Zm5.251,0V-12.942h1.411v6.528l6.307-6.528h1.8L224.651-6.27l6.97,7.152h-1.843l-6.8-6.912V.883Zm17.309.288a6.3,6.3,0,0,1-3.485-.917,5.751,5.751,0,0,1-2.15-2.539,9.047,9.047,0,0,1-.73-3.744,9.047,9.047,0,0,1,.73-3.744,5.751,5.751,0,0,1,2.15-2.539,6.3,6.3,0,0,1,3.485-.917,6.29,6.29,0,0,1,3.49.917,5.793,5.793,0,0,1,2.15,2.539,9,9,0,0,1,.734,3.744,9,9,0,0,1-.734,3.744,5.793,5.793,0,0,1-2.15,2.539A6.29,6.29,0,0,1,238.879,1.171Zm0-1.354a4.7,4.7,0,0,0,2.707-.739,4.48,4.48,0,0,0,1.627-2.059,7.972,7.972,0,0,0,.542-3.048,7.935,7.935,0,0,0-.542-3.043,4.483,4.483,0,0,0-1.627-2.054,4.751,4.751,0,0,0-2.707-.749,4.654,4.654,0,0,0-2.7.739,4.5,4.5,0,0,0-1.618,2.059,8.092,8.092,0,0,0-.552,3.048,7.783,7.783,0,0,0,.533,3.039,4.516,4.516,0,0,0,1.627,2.054A4.728,4.728,0,0,0,238.879-.183ZM252.934.883V-12.942h10.589V.883h-1.411V-11.588h-7.767V.883Zm14.237,0V-12.942h5.338q.2,0,.456.014a4.088,4.088,0,0,1,.514.062,3.85,3.85,0,0,1,1.838.754,3.761,3.761,0,0,1,1.142,1.483,4.9,4.9,0,0,1,.389,1.978,4.825,4.825,0,0,1-.394,1.968A3.8,3.8,0,0,1,275.308-5.2a3.841,3.841,0,0,1-1.829.754q-.259.038-.514.058t-.456.019h-3.927V.883Zm1.411-6.6h3.888q.173,0,.4-.019a3.485,3.485,0,0,0,.451-.067,2.388,2.388,0,0,0,1.166-.586,2.728,2.728,0,0,0,.682-1.027,3.466,3.466,0,0,0,.226-1.238,3.505,3.505,0,0,0-.226-1.243,2.721,2.721,0,0,0-.682-1.032,2.388,2.388,0,0,0-1.166-.586,3,3,0,0,0-.451-.062q-.23-.014-.4-.014h-3.888Zm16.743,6.883a6.3,6.3,0,0,1-3.485-.917,5.751,5.751,0,0,1-2.151-2.539,9.047,9.047,0,0,1-.73-3.744,9.047,9.047,0,0,1,.73-3.744,5.751,5.751,0,0,1,2.151-2.539,6.3,6.3,0,0,1,3.485-.917,6.29,6.29,0,0,1,3.49.917,5.792,5.792,0,0,1,2.15,2.539A9,9,0,0,1,291.7-6.03a9,9,0,0,1-.734,3.744,5.792,5.792,0,0,1-2.15,2.539A6.29,6.29,0,0,1,285.326,1.171Zm0-1.354a4.7,4.7,0,0,0,2.707-.739,4.48,4.48,0,0,0,1.627-2.059A7.972,7.972,0,0,0,290.2-6.03a7.935,7.935,0,0,0-.542-3.043,4.483,4.483,0,0,0-1.627-2.054,4.751,4.751,0,0,0-2.707-.749,4.654,4.654,0,0,0-2.7.739,4.5,4.5,0,0,0-1.618,2.059,8.093,8.093,0,0,0-.552,3.048,7.782,7.782,0,0,0,.533,3.039,4.516,4.516,0,0,0,1.627,2.054A4.728,4.728,0,0,0,285.326-.183ZM294.58.883V-12.942h8.64v1.354h-7.229V.883Zm11.136,0V-12.942h5.338q.2,0,.456.014a4.089,4.089,0,0,1,.514.062,3.85,3.85,0,0,1,1.839.754,3.761,3.761,0,0,1,1.142,1.483,4.9,4.9,0,0,1,.389,1.978A4.825,4.825,0,0,1,315-6.683,3.8,3.8,0,0,1,313.853-5.2a3.841,3.841,0,0,1-1.829.754q-.259.038-.514.058t-.456.019h-3.926V.883Zm1.411-6.6h3.888q.173,0,.4-.019a3.484,3.484,0,0,0,.451-.067,2.389,2.389,0,0,0,1.166-.586,2.728,2.728,0,0,0,.682-1.027,3.465,3.465,0,0,0,.226-1.238,3.5,3.5,0,0,0-.226-1.243,2.721,2.721,0,0,0-.682-1.032,2.389,2.389,0,0,0-1.166-.586,3,3,0,0,0-.451-.062q-.23-.014-.4-.014h-3.888Zm10.186,6.6,4.762-13.825h1.872L328.71.883h-1.469l-4.522-13.037h.557L318.783.883Zm2.122-3.351V-3.793h7.143v1.325ZM331.4.883V-12.942h1.3l5.434,11.626,5.405-11.626h1.315V.873H343.5V-9.793L338.579.883h-.912L332.752-9.793V.883Zm17.1,0V-12.942h1.3l5.434,11.626,5.4-11.626h1.315V.873H360.6V-9.793L355.677.883h-.912L349.85-9.793V.883Zm16.138,0L369.4-12.942h1.872L376.03.883h-1.469l-4.522-13.037h.557L366.1.883Zm2.122-3.351V-3.793H373.9v1.325ZM383.518.883V-12.942h1.3l5.434,11.626,5.4-11.626h1.315V.873h-1.344V-9.793L390.7.883h-.912L384.872-9.793V.883Zm17.1,0V-12.942h8.64v1.354h-7.229v4.781H408.1v1.354h-6.077V-.471h7.229V.883Zm15.581,0V-11.588h-4.829v-1.354h11.069v1.354h-4.829V.883Zm7.392,0,4.762-13.825h1.872L434.986.883h-1.469L429-12.155h.557L425.059.883Zm2.122-3.351V-3.793h7.143v1.325ZM437.674.883V-12.942h10.589V.883h-1.411V-11.588h-7.767V.883Zm17.914,0V-11.588h-4.829v-1.354h11.069v1.354H457V.883Zm12.605,0V-4.906l-4.637-8.036h1.632L468.9-6.519l3.7-6.423h1.632l-4.618,8.036V.883Zm6.807,0,4.791-7-4.666-6.826h1.709L480.626-7.3l3.792-5.645h1.719l-4.666,6.826,4.781,7h-1.709l-3.917-5.808L476.719.883Zm13.94,0V-12.942h1.411V.883Zm4.291,0,4.762-13.825h1.872L504.627.883h-1.469l-4.522-13.037h.557L494.7.883Zm2.122-3.351V-3.793H502.5v1.325ZM507.315.883V-12.942h1.411v6.528l6.307-6.528h1.8L510.4-6.27l6.97,7.152h-1.843l-6.8-6.912V.883Zm11.012,0V-.471h2.6a7.079,7.079,0,0,1-1.944-2.477,7.749,7.749,0,0,1-.725-3.418,8.113,8.113,0,0,1,.437-2.7,6.465,6.465,0,0,1,1.263-2.179,5.777,5.777,0,0,1,2-1.454,6.489,6.489,0,0,1,2.664-.523,6.522,6.522,0,0,1,2.669.523,5.765,5.765,0,0,1,2.007,1.454,6.465,6.465,0,0,1,1.262,2.179,8.112,8.112,0,0,1,.437,2.7,7.794,7.794,0,0,1-.72,3.418A6.982,6.982,0,0,1,528.33-.471h2.592V.883h-4.531l.01-1.354a5.183,5.183,0,0,0,1.4-1.118,6.526,6.526,0,0,0,1.186-1.886,6.974,6.974,0,0,0,.518-2.573,7.143,7.143,0,0,0-.3-2.227,5.658,5.658,0,0,0-.955-1.853A4.556,4.556,0,0,0,526.7-11.4a4.534,4.534,0,0,0-2.074-.461,4.471,4.471,0,0,0-2.045.456,4.533,4.533,0,0,0-1.531,1.253,5.757,5.757,0,0,0-.96,1.834,7.18,7.18,0,0,0-.331,2.2,6.869,6.869,0,0,0,.288,2.054,6.479,6.479,0,0,0,.758,1.637,6.107,6.107,0,0,0,1.018,1.2,5.054,5.054,0,0,0,1.056.749V.883Zm15.553,0V-12.942H535.3l7.613,11.328V-12.942h1.421V.883h-1.421L535.3-10.455V.883Zm18.9,0v-1.3l5.53-5.616-5.53-5.6v-1.315h9.792v1.354H554.77l5.338,5.4v.326l-5.338,5.4h7.565V.883Zm13.44,0V-12.942h10.589V.883H575.4V-11.588h-7.767V.883Zm19.834.288a6.3,6.3,0,0,1-3.485-.917,5.75,5.75,0,0,1-2.151-2.539,9.047,9.047,0,0,1-.73-3.744,9.047,9.047,0,0,1,.73-3.744,5.75,5.75,0,0,1,2.151-2.539,6.3,6.3,0,0,1,3.485-.917,6.29,6.29,0,0,1,3.49.917,5.792,5.792,0,0,1,2.15,2.539,8.995,8.995,0,0,1,.734,3.744,8.995,8.995,0,0,1-.734,3.744,5.792,5.792,0,0,1-2.15,2.539A6.29,6.29,0,0,1,586.058,1.171Zm0-1.354a4.7,4.7,0,0,0,2.707-.739,4.48,4.48,0,0,0,1.627-2.059,7.971,7.971,0,0,0,.542-3.048,7.935,7.935,0,0,0-.542-3.043,4.483,4.483,0,0,0-1.627-2.054,4.751,4.751,0,0,0-2.707-.749,4.653,4.653,0,0,0-2.7.739,4.5,4.5,0,0,0-1.618,2.059,8.092,8.092,0,0,0-.552,3.048,7.784,7.784,0,0,0,.533,3.039A4.517,4.517,0,0,0,583.35-.937,4.728,4.728,0,0,0,586.058-.183ZM598.029.883V-4.906l-4.637-8.036h1.632l3.715,6.423,3.7-6.423h1.632L599.45-4.906V.883Zm7.095,0V-.471h9.3V.883Zm3.706-13.825H610.7L615.464.883h-1.469l-4.243-12.221L605.537.883h-1.469ZM617.067.883V-.471h2.6a7.079,7.079,0,0,1-1.944-2.477A7.749,7.749,0,0,1,617-6.366a8.112,8.112,0,0,1,.437-2.7,6.464,6.464,0,0,1,1.262-2.179,5.776,5.776,0,0,1,2-1.454,6.489,6.489,0,0,1,2.664-.523,6.522,6.522,0,0,1,2.669.523,5.765,5.765,0,0,1,2.006,1.454A6.463,6.463,0,0,1,629.3-9.063a8.112,8.112,0,0,1,.437,2.7,7.794,7.794,0,0,1-.72,3.418A6.981,6.981,0,0,1,627.07-.471h2.592V.883h-4.531l.01-1.354a5.181,5.181,0,0,0,1.4-1.118,6.524,6.524,0,0,0,1.186-1.886,6.974,6.974,0,0,0,.518-2.573,7.141,7.141,0,0,0-.3-2.227,5.656,5.656,0,0,0-.955-1.853,4.556,4.556,0,0,0-1.546-1.267,4.535,4.535,0,0,0-2.074-.461,4.47,4.47,0,0,0-2.045.456,4.532,4.532,0,0,0-1.531,1.253,5.756,5.756,0,0,0-.96,1.834,7.18,7.18,0,0,0-.331,2.2,6.869,6.869,0,0,0,.288,2.054,6.474,6.474,0,0,0,.758,1.637,6.107,6.107,0,0,0,1.018,1.2,5.054,5.054,0,0,0,1.056.749V.883Zm15.553,0V-12.942h1.421l7.613,11.328V-12.942h1.421V.883h-1.421L634.04-10.455V.883Z" transform="translate(0.641 13.23)" fill="#fff"/>
      <path id="Path_3244" data-name="Path 3244" d="M.85.824.859-.391l5.9-5.331a3.762,3.762,0,0,0,1.011-1.31,3.46,3.46,0,0,0,.249-1.3,2.843,2.843,0,0,0-.381-1.46,2.883,2.883,0,0,0-1.025-1.038,2.753,2.753,0,0,0-1.442-.385,2.794,2.794,0,0,0-1.487.4A2.932,2.932,0,0,0,2.659-9.766a2.735,2.735,0,0,0-.367,1.424H.932a4.081,4.081,0,0,1,.562-2.131,4.052,4.052,0,0,1,1.523-1.482A4.368,4.368,0,0,1,5.193-12.5a4.13,4.13,0,0,1,2.135.558,4.107,4.107,0,0,1,1.5,1.505,4.131,4.131,0,0,1,.549,2.108,4.806,4.806,0,0,1-.195,1.437,3.639,3.639,0,0,1-.607,1.152A8.263,8.263,0,0,1,7.523-4.643L2.283.09,2.074-.454h7.3V.824Zm15.867.281A4.236,4.236,0,0,1,14.546.543,4.162,4.162,0,0,1,13.018-.984a4.236,4.236,0,0,1-.562-2.172V-8.233a4.236,4.236,0,0,1,.562-2.172,4.162,4.162,0,0,1,1.528-1.528,4.236,4.236,0,0,1,2.172-.562,4.236,4.236,0,0,1,2.172.562,4.162,4.162,0,0,1,1.528,1.528,4.236,4.236,0,0,1,.562,2.172v5.078a4.236,4.236,0,0,1-.562,2.172A4.162,4.162,0,0,1,18.889.543,4.236,4.236,0,0,1,16.717,1.106Zm0-1.288a2.815,2.815,0,0,0,1.469-.394,2.96,2.96,0,0,0,1.052-1.056,2.823,2.823,0,0,0,.39-1.46V-8.3a2.84,2.84,0,0,0-.39-1.469,2.96,2.96,0,0,0-1.052-1.056,2.815,2.815,0,0,0-1.469-.394,2.815,2.815,0,0,0-1.469.394A2.96,2.96,0,0,0,14.2-9.766a2.84,2.84,0,0,0-.39,1.469v5.2a2.823,2.823,0,0,0,.39,1.46A2.96,2.96,0,0,0,15.248-.576,2.815,2.815,0,0,0,16.717-.182ZM24.062.824l.009-1.215,5.9-5.331a3.762,3.762,0,0,0,1.011-1.31,3.46,3.46,0,0,0,.249-1.3,2.843,2.843,0,0,0-.381-1.46,2.883,2.883,0,0,0-1.025-1.038,2.753,2.753,0,0,0-1.442-.385,2.794,2.794,0,0,0-1.487.4A2.932,2.932,0,0,0,25.87-9.766,2.735,2.735,0,0,0,25.5-8.342h-1.36a4.081,4.081,0,0,1,.562-2.131,4.052,4.052,0,0,1,1.523-1.482A4.368,4.368,0,0,1,28.4-12.5a4.13,4.13,0,0,1,2.135.558,4.107,4.107,0,0,1,1.5,1.505,4.131,4.131,0,0,1,.549,2.108,4.806,4.806,0,0,1-.195,1.437,3.639,3.639,0,0,1-.607,1.152,8.263,8.263,0,0,1-1.047,1.093L25.494.09l-.209-.544h7.3V.824ZM39.176,1.1A4.546,4.546,0,0,1,37.39.752a4.008,4.008,0,0,1-1.405-.984,3.9,3.9,0,0,1-.861-1.528l1.269-.381A2.751,2.751,0,0,0,37.467-.672a2.876,2.876,0,0,0,1.691.481,3.029,3.029,0,0,0,1.5-.39,2.472,2.472,0,0,0,.966-1.034,3.345,3.345,0,0,0,.335-1.532,2.975,2.975,0,0,0-.775-2.144A2.7,2.7,0,0,0,39.14-6.1a3.135,3.135,0,0,0-.743.1,3.29,3.29,0,0,0-.725.267L37-6.8l5.078-4.688.218.544H35.64v-1.278h7.544v1.3L38.759-6.7l-.018-.526a4.3,4.3,0,0,1,2.394.308,3.617,3.617,0,0,1,1.618,1.464,4.431,4.431,0,0,1,.585,2.308A4.417,4.417,0,0,1,42.8-.939a3.9,3.9,0,0,1-1.482,1.5A4.231,4.231,0,0,1,39.176,1.1Z" transform="translate(521.457 150.884)" fill="#fff"/>
      <path id="Path_3243" data-name="Path 3243" d="M1.19.817V-12.24H9.35v1.278H2.523v4.515H8.262v1.278H2.523V-.462H9.35V.817Zm11.243,0V-12.24h1.333v6.166l5.957-6.166h1.7l-6.084,6.3L21.926.817H20.185L13.766-5.712V.817ZM24.1.817V-12.24h10V.817H32.77V-10.962H25.435V.817Zm12.54,0,4.5-13.057h1.768L47.4.817H46.017L41.747-11.5h.526L38.029.817Zm2-3.164V-3.6h6.746v1.251Z" transform="translate(-1.19 150.901)" fill="#fff"/>
      <path id="Path_3245" data-name="Path 3245" d="M.85.824.859-.391l5.9-5.331a3.762,3.762,0,0,0,1.011-1.31,3.46,3.46,0,0,0,.249-1.3,2.843,2.843,0,0,0-.381-1.46,2.883,2.883,0,0,0-1.025-1.038,2.753,2.753,0,0,0-1.442-.385,2.794,2.794,0,0,0-1.487.4A2.932,2.932,0,0,0,2.659-9.766a2.735,2.735,0,0,0-.367,1.424H.932a4.081,4.081,0,0,1,.562-2.131,4.052,4.052,0,0,1,1.523-1.482A4.368,4.368,0,0,1,5.193-12.5a4.13,4.13,0,0,1,2.135.558,4.107,4.107,0,0,1,1.5,1.505,4.131,4.131,0,0,1,.549,2.108,4.806,4.806,0,0,1-.195,1.437,3.639,3.639,0,0,1-.607,1.152A8.263,8.263,0,0,1,7.523-4.643L2.283.09,2.074-.454h7.3V.824Zm15.867.281A4.236,4.236,0,0,1,14.546.543,4.162,4.162,0,0,1,13.018-.984a4.236,4.236,0,0,1-.562-2.172V-8.233a4.236,4.236,0,0,1,.562-2.172,4.162,4.162,0,0,1,1.528-1.528,4.236,4.236,0,0,1,2.172-.562,4.236,4.236,0,0,1,2.172.562,4.162,4.162,0,0,1,1.528,1.528,4.236,4.236,0,0,1,.562,2.172v5.078a4.236,4.236,0,0,1-.562,2.172A4.162,4.162,0,0,1,18.889.543,4.236,4.236,0,0,1,16.717,1.106Zm0-1.288a2.815,2.815,0,0,0,1.469-.394,2.96,2.96,0,0,0,1.052-1.056,2.823,2.823,0,0,0,.39-1.46V-8.3a2.84,2.84,0,0,0-.39-1.469,2.96,2.96,0,0,0-1.052-1.056,2.815,2.815,0,0,0-1.469-.394,2.815,2.815,0,0,0-1.469.394A2.96,2.96,0,0,0,14.2-9.766a2.84,2.84,0,0,0-.39,1.469v5.2a2.823,2.823,0,0,0,.39,1.46A2.96,2.96,0,0,0,15.248-.576,2.815,2.815,0,0,0,16.717-.182ZM24.062.824l.009-1.215,5.9-5.331a3.762,3.762,0,0,0,1.011-1.31,3.46,3.46,0,0,0,.249-1.3,2.843,2.843,0,0,0-.381-1.46,2.883,2.883,0,0,0-1.025-1.038,2.753,2.753,0,0,0-1.442-.385,2.794,2.794,0,0,0-1.487.4A2.932,2.932,0,0,0,25.87-9.766,2.735,2.735,0,0,0,25.5-8.342h-1.36a4.081,4.081,0,0,1,.562-2.131,4.052,4.052,0,0,1,1.523-1.482A4.368,4.368,0,0,1,28.4-12.5a4.13,4.13,0,0,1,2.135.558,4.107,4.107,0,0,1,1.5,1.505,4.131,4.131,0,0,1,.549,2.108,4.806,4.806,0,0,1-.195,1.437,3.639,3.639,0,0,1-.607,1.152,8.263,8.263,0,0,1-1.047,1.093L25.494.09l-.209-.544h7.3V.824ZM41.053.834V-1.7H34.942V-2.966l4.37-9.257h1.5l-4.37,9.257h4.615V-6.774H42.4v3.808h1.424V-1.7H42.4V.834Z" transform="translate(600.104 150.884)" fill="#fff"/>
      <rect id="Rectangle_127" data-name="Rectangle 127" width="645.309" height="2.779" transform="translate(0 32.034)" fill="#fff"/>
      <rect id="Rectangle_128" data-name="Rectangle 128" width="645.309" height="2.779" transform="translate(0 108.196)" fill="#fff"/>
      <line id="Line_93" data-name="Line 93" x2="28" transform="translate(565.326 144.509)" fill="none" stroke="#fff" stroke-width="1"/>
    </g>
  </g>
</svg>
